<svg width="432" height="432" version="1.1" xmlns="http://www.w3.org/2000/svg" desc="Created with imagetracer.js version 1.2.6" ><path fill="rgb(232,34,154)" stroke="rgb(232,34,154)" stroke-width="1" opacity="0.996078431372549" d="M 247.5 77 L 347 123 L 347 129.5 L 346 130.5 L 346 142.5 L 345 143.5 L 343 189.5 L 342 191.5 L 342 193.5 L 341 222.5 L 340 223.5 L 340 235.5 L 339 236.5 L 340 239.5 L 339 240.5 L 339 252.5 L 338 253.5 L 338 270 Q 335.3 271.1 336 268.5 L 248 80.5 L 247.5 77 Z " /><path fill="rgb(232,34,154)" stroke="rgb(232,34,154)" stroke-width="1" opacity="0.996078431372549" d="M 182.5 78 Q 184.8 77.3 184 79.5 L 94.5 271 L 92 228.5 L 91 227.5 L 90 194.5 L 89 193.5 L 89 181.5 L 88 180.5 L 87 148.5 L 86 147.5 L 86 134.5 L 85 132.5 L 85 130.5 L 85 123.5 L 86.5 123 L 182.5 78 Z " /><path fill="rgb(232,34,154)" stroke="rgb(232,34,154)" stroke-width="1" opacity="0.996078431372549" d="M 215.5 152 L 219 157.5 L 251 238 L 180 237.5 L 215.5 152 Z " /><path fill="rgb(232,34,154)" stroke="rgb(232,34,154)" stroke-width="1" opacity="0.996078431372549" d="M 161 282 L 269.5 282 L 271 283.5 L 284 316 L 215.5 354 L 148 316 L 161 282 Z " /><path fill="rgb(199,21,71)" stroke="rgb(199,21,71)" stroke-width="1" opacity="0.14901960784313725" d="M 355.5 50 L 356.5 52 L 355.5 50 Z " /><path fill="rgb(199,21,71)" stroke="rgb(199,21,71)" stroke-width="1" opacity="0.14901960784313725" d="M 66.5 59 L 59.5 67 L 66.5 59 Z " /><path fill="rgb(199,21,71)" stroke="rgb(199,21,71)" stroke-width="1" opacity="0.14901960784313725" d="M 365.5 59 L 372.5 67 L 365.5 59 Z " /><path fill="rgb(199,21,71)" stroke="rgb(199,21,71)" stroke-width="1" opacity="0.14901960784313725" d="M 51.5 75 L 50.5 77 L 51.5 75 Z " /><path fill="rgb(199,21,71)" stroke="rgb(199,21,71)" stroke-width="1" opacity="0.14901960784313725" d="M 185.5 76 L 185 77.5 L 184.5 79 L 183.5 77 L 185.5 76 Z " /><path fill="rgb(199,21,71)" stroke="rgb(199,21,71)" stroke-width="1" opacity="0.14901960784313725" d="M 248.5 77 L 247.5 79 L 248.5 77 Z " /><path fill="rgb(199,21,71)" stroke="rgb(199,21,71)" stroke-width="1" opacity="0.14901960784313725" d="M 178.5 78 L 179.5 80 L 178.5 78 Z " /><path fill="rgb(199,21,71)" stroke="rgb(199,21,71)" stroke-width="1" opacity="0.14901960784313725" d="M 257.5 80 L 256.5 82 L 257.5 80 Z " /><path fill="rgb(199,21,71)" stroke="rgb(199,21,71)" stroke-width="1" opacity="0.14901960784313725" d="M 154.5 89 L 155.5 91 L 154.5 89 Z " /><path fill="rgb(199,21,71)" stroke="rgb(199,21,71)" stroke-width="1" opacity="0.14901960784313725" d="M 152.5 90 L 153.5 92 L 152.5 90 Z " /><path fill="rgb(199,21,71)" stroke="rgb(199,21,71)" stroke-width="1" opacity="0.14901960784313725" d="M 139.5 96 L 140.5 98 L 139.5 96 Z " /><path fill="rgb(199,21,71)" stroke="rgb(199,21,71)" stroke-width="1" opacity="0.14901960784313725" d="M 296.5 98 L 295.5 100 L 296.5 98 Z " /><path fill="rgb(199,21,71)" stroke="rgb(199,21,71)" stroke-width="1" opacity="0.14901960784313725" d="M 124.5 103 L 126.5 103 L 128 103.5 L 122.5 106 L 122.5 105 Q 125 105.7 124.5 103 Z " /><path fill="rgb(199,21,71)" stroke="rgb(199,21,71)" stroke-width="1" opacity="0.14901960784313725" d="M 260.5 106 L 262 108.5 L 260 109.5 L 260 107.5 L 260.5 106 Z " /><path fill="rgb(199,21,71)" stroke="rgb(199,21,71)" stroke-width="1" opacity="0.14901960784313725" d="M 113.5 108 L 114.5 110 L 113.5 108 Z " /><path fill="rgb(199,21,71)" stroke="rgb(199,21,71)" stroke-width="1" opacity="0.14901960784313725" d="M 111.5 109 L 112.5 111 Q 109.7 111.7 111.5 109 Z " /><path fill="rgb(199,21,71)" stroke="rgb(199,21,71)" stroke-width="1" opacity="0.14901960784313725" d="M 100.5 114 L 101.5 116 L 100.5 114 Z " /><path fill="rgb(199,21,71)" stroke="rgb(199,21,71)" stroke-width="1" opacity="0.14901960784313725" d="M 98.5 115 L 99.5 117 L 98.5 115 Z " /><path fill="rgb(199,21,71)" stroke="rgb(199,21,71)" stroke-width="1" opacity="0.14901960784313725" d="M 166.5 116 L 167.5 118 L 166.5 116 Z " /><path fill="rgb(199,21,71)" stroke="rgb(199,21,71)" stroke-width="1" opacity="0.14901960784313725" d="M 85.5 121 L 86.5 123 L 85 122.5 L 84.5 126 L 84 122.5 L 85.5 121 Z " /><path fill="rgb(199,21,71)" stroke="rgb(199,21,71)" stroke-width="1" opacity="0.14901960784313725" d="M 346.5 130 L 347 133.5 L 346 133.5 L 346.5 130 Z " /><path fill="rgb(199,21,71)" stroke="rgb(199,21,71)" stroke-width="1" opacity="0.14901960784313725" d="M 159.5 131 L 160.5 133 L 159.5 131 Z " /><path fill="rgb(199,21,71)" stroke="rgb(199,21,71)" stroke-width="1" opacity="0.14901960784313725" d="M 85.5 134 L 86 138.5 L 85 138.5 L 85.5 134 Z " /><path fill="rgb(199,21,71)" stroke="rgb(199,21,71)" stroke-width="1" opacity="0.14901960784313725" d="M 346.5 135 L 347 137.5 L 346 137.5 L 346.5 135 Z " /><path fill="rgb(199,21,71)" stroke="rgb(199,21,71)" stroke-width="1" opacity="0.14901960784313725" d="M 85.5 140 L 86 142.5 L 85 142.5 L 85.5 140 Z " /><path fill="rgb(199,21,71)" stroke="rgb(199,21,71)" stroke-width="1" opacity="0.14901960784313725" d="M 345.5 143 L 346 150.5 L 345 150.5 L 345.5 143 Z " /><path fill="rgb(199,21,71)" stroke="rgb(199,21,71)" stroke-width="1" opacity="0.14901960784313725" d="M 152.5 147 L 154 147.5 L 152 148.5 L 152.5 150 Q 150.3 150.8 151 148.5 L 152.5 147 Z " /><path fill="rgb(199,21,71)" stroke="rgb(199,21,71)" stroke-width="1" opacity="0.14901960784313725" d="M 86.5 148 L 87 155.5 L 86 155.5 L 86.5 148 Z " /><path fill="rgb(199,21,71)" stroke="rgb(199,21,71)" stroke-width="1" opacity="0.14901960784313725" d="M 216.5 150 Q 219.5 151.5 216.5 153 Q 213.5 151.5 216.5 150 Z " /><path fill="rgb(199,21,71)" stroke="rgb(199,21,71)" stroke-width="1" opacity="0.14901960784313725" d="M 344.5 160 L 345 167.5 L 344 167.5 L 344.5 160 Z " /><path fill="rgb(199,21,71)" stroke="rgb(199,21,71)" stroke-width="1" opacity="0.14901960784313725" d="M 87.5 164 L 88 172.5 L 87 172.5 L 87.5 164 Z " /><path fill="rgb(199,21,71)" stroke="rgb(199,21,71)" stroke-width="1" opacity="0.14901960784313725" d="M 287.5 164 L 286.5 166 L 287.5 164 Z " /><path fill="rgb(199,21,71)" stroke="rgb(199,21,71)" stroke-width="1" opacity="0.14901960784313725" d="M 208.5 165 Q 210.8 164.3 210 166.5 L 208.5 165 Z " /><path fill="rgb(199,21,71)" stroke="rgb(199,21,71)" stroke-width="1" opacity="0.14901960784313725" d="M 288.5 166 L 289 168 L 287 167.5 L 288.5 166 Z " /><path fill="rgb(199,21,71)" stroke="rgb(199,21,71)" stroke-width="1" opacity="0.14901960784313725" d="M 223 168 L 225 168.5 L 223 169.5 L 223 168 Z " /><path fill="rgb(199,21,71)" stroke="rgb(199,21,71)" stroke-width="1" opacity="0.14901960784313725" d="M 139.5 174 L 140.5 176 L 139.5 174 Z " /><path fill="rgb(199,21,71)" stroke="rgb(199,21,71)" stroke-width="1" opacity="0.14901960784313725" d="M 343.5 176 L 344 184.5 L 343 184.5 L 343.5 176 Z " /><path fill="rgb(199,21,71)" stroke="rgb(199,21,71)" stroke-width="1" opacity="0.14901960784313725" d="M 227 178 L 229 178.5 L 227 179.5 L 227 178 Z " /><path fill="rgb(199,21,71)" stroke="rgb(199,21,71)" stroke-width="1" opacity="0.14901960784313725" d="M 293.5 180 L 296 181.5 Q 296.8 183.8 294.5 183 L 294.5 181 L 293.5 180 Z " /><path fill="rgb(199,21,71)" stroke="rgb(199,21,71)" stroke-width="1" opacity="0.14901960784313725" d="M 88.5 181 L 89 189.5 L 88 189.5 L 88.5 181 Z " /><path fill="rgb(199,21,71)" stroke="rgb(199,21,71)" stroke-width="1" opacity="0.14901960784313725" d="M 133.5 187 L 134.5 189 L 133.5 187 Z " /><path fill="rgb(199,21,71)" stroke="rgb(199,21,71)" stroke-width="1" opacity="0.14901960784313725" d="M 132.5 189 L 133.5 191 L 132.5 189 Z " /><path fill="rgb(199,21,71)" stroke="rgb(199,21,71)" stroke-width="1" opacity="0.14901960784313725" d="M 342.5 193 L 343 197.5 L 342 197.5 L 342.5 193 Z " /><path fill="rgb(199,21,71)" stroke="rgb(199,21,71)" stroke-width="1" opacity="0.14901960784313725" d="M 89.5 194 L 90 202.5 L 89 202.5 L 89.5 194 Z " /><path fill="rgb(199,21,71)" stroke="rgb(199,21,71)" stroke-width="1" opacity="0.14901960784313725" d="M 196.5 194 L 197.5 196 L 196.5 194 Z " /><path fill="rgb(199,21,71)" stroke="rgb(199,21,71)" stroke-width="1" opacity="0.14901960784313725" d="M 342.5 199 L 343 201.5 L 342 201.5 L 342.5 199 Z " /><path fill="rgb(199,21,71)" stroke="rgb(199,21,71)" stroke-width="1" opacity="0.14901960784313725" d="M 126.5 202 L 127 203.5 L 126.5 206 Q 124.3 206.8 125 204.5 L 126.5 202 Z " /><path fill="rgb(199,21,71)" stroke="rgb(199,21,71)" stroke-width="1" opacity="0.14901960784313725" d="M 89.5 204 L 90 206.5 L 89 206.5 L 89.5 204 Z " /><path fill="rgb(199,21,71)" stroke="rgb(199,21,71)" stroke-width="1" opacity="0.14901960784313725" d="M 341.5 206 L 342 214.5 L 341 214.5 L 341.5 206 Z " /><path fill="rgb(199,21,71)" stroke="rgb(199,21,71)" stroke-width="1" opacity="0.14901960784313725" d="M 239 207 L 241 207.5 L 239 208.5 L 239 207 Z " /><path fill="rgb(199,21,71)" stroke="rgb(199,21,71)" stroke-width="1" opacity="0.14901960784313725" d="M 307.5 207 L 306.5 209 L 307.5 207 Z " /><path fill="rgb(199,21,71)" stroke="rgb(199,21,71)" stroke-width="1" opacity="0.14901960784313725" d="M 308.5 209 L 309 211 L 307 210.5 L 308.5 209 Z " /><path fill="rgb(199,21,71)" stroke="rgb(199,21,71)" stroke-width="1" opacity="0.14901960784313725" d="M 90.5 211 L 91 219.5 L 90 219.5 L 90.5 211 Z " /><path fill="rgb(199,21,71)" stroke="rgb(199,21,71)" stroke-width="1" opacity="0.14901960784313725" d="M 189.5 211 L 190.5 213 L 189.5 211 Z " /><path fill="rgb(199,21,71)" stroke="rgb(199,21,71)" stroke-width="1" opacity="0.14901960784313725" d="M 241.5 212 L 243 215.5 L 242 215.5 L 241.5 212 Z " /><path fill="rgb(199,21,71)" stroke="rgb(199,21,71)" stroke-width="1" opacity="0.14901960784313725" d="M 120.5 215 L 121.5 217 L 120.5 215 Z " /><path fill="rgb(199,21,71)" stroke="rgb(199,21,71)" stroke-width="1" opacity="0.14901960784313725" d="M 243.5 217 L 245 220.5 L 244 220.5 L 243.5 217 Z " /><path fill="rgb(199,21,71)" stroke="rgb(199,21,71)" stroke-width="1" opacity="0.14901960784313725" d="M 313.5 220 L 315 224 L 313 223.5 L 313 221.5 L 313.5 220 Z " /><path fill="rgb(199,21,71)" stroke="rgb(199,21,71)" stroke-width="1" opacity="0.14901960784313725" d="M 340.5 223 L 341 231.5 L 340 231.5 L 340.5 223 Z " /><path fill="rgb(199,21,71)" stroke="rgb(199,21,71)" stroke-width="1" opacity="0.14901960784313725" d="M 246 224 L 248 224.5 L 246 225.5 L 246 224 Z " /><path fill="rgb(199,21,71)" stroke="rgb(199,21,71)" stroke-width="1" opacity="0.14901960784313725" d="M 91.5 228 L 92 236.5 L 91 236.5 L 91.5 228 Z " /><path fill="rgb(199,21,71)" stroke="rgb(199,21,71)" stroke-width="1" opacity="0.14901960784313725" d="M 113.5 230 L 114.5 232 L 113.5 230 Z " /><path fill="rgb(199,21,71)" stroke="rgb(199,21,71)" stroke-width="1" opacity="0.14901960784313725" d="M 180.5 233 Q 182.8 232.3 182 234.5 L 180.5 233 Z " /><path fill="rgb(199,21,71)" stroke="rgb(199,21,71)" stroke-width="1" opacity="0.14901960784313725" d="M 320.5 235 L 322 239 L 320 238.5 L 320 236.5 L 320.5 235 Z " /><path fill="rgb(199,21,71)" stroke="rgb(199,21,71)" stroke-width="1" opacity="0.14901960784313725" d="M 251.5 237 L 252 239 L 179 238.5 L 250.5 238 L 251.5 237 Z " /><path fill="rgb(199,21,71)" stroke="rgb(199,21,71)" stroke-width="1" opacity="0.14901960784313725" d="M 339.5 240 L 340 248.5 L 339 248.5 L 339.5 240 Z " /><path fill="rgb(199,21,71)" stroke="rgb(199,21,71)" stroke-width="1" opacity="0.14901960784313725" d="M 92.5 241 L 93 252.5 L 92 252.5 L 92.5 241 Z " /><path fill="rgb(199,21,71)" stroke="rgb(199,21,71)" stroke-width="1" opacity="0.14901960784313725" d="M 106.5 245 L 107.5 247 L 106.5 245 Z " /><path fill="rgb(199,21,71)" stroke="rgb(199,21,71)" stroke-width="1" opacity="0.14901960784313725" d="M 327.5 253 L 330 254.5 L 329.5 256 L 329 254 L 327.5 253 Z " /><path fill="rgb(199,21,71)" stroke="rgb(199,21,71)" stroke-width="1" opacity="0.14901960784313725" d="M 338.5 253 L 339 261.5 L 338 261.5 L 338.5 253 Z " /><path fill="rgb(199,21,71)" stroke="rgb(199,21,71)" stroke-width="1" opacity="0.14901960784313725" d="M 93.5 258 L 94 266.5 L 93 266.5 L 93.5 258 Z " /><path fill="rgb(199,21,71)" stroke="rgb(199,21,71)" stroke-width="1" opacity="0.14901960784313725" d="M 99.5 260 L 100.5 262 L 99 262.5 L 99.5 264 Q 97.3 264.8 98 262.5 L 99.5 260 Z " /><path fill="rgb(199,21,71)" stroke="rgb(199,21,71)" stroke-width="1" opacity="0.14901960784313725" d="M 333.5 263 L 332.5 265 L 333.5 263 Z " /><path fill="rgb(199,21,71)" stroke="rgb(199,21,71)" stroke-width="1" opacity="0.14901960784313725" d="M 336.5 270 Q 338.8 269.3 338 271.5 L 336 272.5 L 336.5 270 Z " /><path fill="rgb(199,21,71)" stroke="rgb(199,21,71)" stroke-width="1" opacity="0.14901960784313725" d="M 94.5 271 L 95.5 273 L 93 272.5 L 94.5 271 Z " /><path fill="rgb(199,21,71)" stroke="rgb(199,21,71)" stroke-width="1" opacity="0.14901960784313725" d="M 160.5 281 L 269.5 281 L 270.5 282 L 272 281.5 Q 270.7 284.3 269.5 282 L 160.5 282 L 160.5 281 Z " /><path fill="rgb(199,21,71)" stroke="rgb(199,21,71)" stroke-width="1" opacity="0.14901960784313725" d="M 158.5 285 Q 160.8 284.3 160 286.5 L 158.5 285 Z " /><path fill="rgb(199,21,71)" stroke="rgb(199,21,71)" stroke-width="1" opacity="0.14901960784313725" d="M 157.5 290 L 158 291.5 L 156.5 294 L 156 292.5 L 157.5 290 Z " /><path fill="rgb(199,21,71)" stroke="rgb(199,21,71)" stroke-width="1" opacity="0.14901960784313725" d="M 277 298 L 279 298.5 L 279 300.5 L 278.5 302 L 277 298 Z " /><path fill="rgb(199,21,71)" stroke="rgb(199,21,71)" stroke-width="1" opacity="0.14901960784313725" d="M 151.5 302 Q 153.8 301.3 153 303.5 L 151.5 302 Z " /><path fill="rgb(199,21,71)" stroke="rgb(199,21,71)" stroke-width="1" opacity="0.14901960784313725" d="M 150.5 307 L 151 308.5 L 149.5 311 L 149 309.5 L 150.5 307 Z " /><path fill="rgb(199,21,71)" stroke="rgb(199,21,71)" stroke-width="1" opacity="0.14901960784313725" d="M 282.5 310 L 284 313.5 L 283 313.5 L 282.5 310 Z " /><path fill="rgb(199,21,71)" stroke="rgb(199,21,71)" stroke-width="1" opacity="0.14901960784313725" d="M 284.5 315 L 285 316.5 Q 283.5 319.5 282 316.5 L 284 316.5 L 284.5 315 Z " /><path fill="rgb(199,21,71)" stroke="rgb(199,21,71)" stroke-width="1" opacity="0.14901960784313725" d="M 149.5 316 L 150.5 318 L 148 317.5 L 149.5 316 Z " /><path fill="rgb(199,21,71)" stroke="rgb(199,21,71)" stroke-width="1" opacity="0.14901960784313725" d="M 280.5 317 L 281.5 319 L 280 318.5 L 279.5 320 L 279 318.5 L 280.5 317 Z " /><path fill="rgb(199,21,71)" stroke="rgb(199,21,71)" stroke-width="1" opacity="0.14901960784313725" d="M 154.5 319 L 158 321.5 L 155 321.5 L 154.5 320 L 153 320.5 L 154.5 319 Z " /><path fill="rgb(199,21,71)" stroke="rgb(199,21,71)" stroke-width="1" opacity="0.14901960784313725" d="M 275.5 320 L 276.5 322 L 275.5 320 Z " /><path fill="rgb(199,21,71)" stroke="rgb(199,21,71)" stroke-width="1" opacity="0.14901960784313725" d="M 273.5 321 L 274.5 323 L 273 322.5 L 272.5 324 L 272 322.5 L 273.5 321 Z " /><path fill="rgb(199,21,71)" stroke="rgb(199,21,71)" stroke-width="1" opacity="0.14901960784313725" d="M 163.5 324 L 165 326.5 L 164 326.5 L 163.5 325 L 162 325.5 L 163.5 324 Z " /><path fill="rgb(199,21,71)" stroke="rgb(199,21,71)" stroke-width="1" opacity="0.14901960784313725" d="M 266.5 325 L 267.5 327 L 266 326.5 L 265.5 328 L 265 326.5 L 266.5 325 Z " /><path fill="rgb(199,21,71)" stroke="rgb(199,21,71)" stroke-width="1" opacity="0.14901960784313725" d="M 168.5 327 L 169.5 329 L 171.5 329 L 174 330.5 L 171 330.5 L 170.5 329 Q 169.3 331.3 168 328.5 L 168.5 327 Z " /><path fill="rgb(199,21,71)" stroke="rgb(199,21,71)" stroke-width="1" opacity="0.14901960784313725" d="M 259.5 329 L 260.5 331 L 259 330.5 L 258.5 332 L 257 331.5 L 256.5 333 L 256 331.5 L 259.5 329 Z " /><path fill="rgb(199,21,71)" stroke="rgb(199,21,71)" stroke-width="1" opacity="0.14901960784313725" d="M 177.5 332 L 178.5 334 L 176 333.5 L 177.5 332 Z " /><path fill="rgb(199,21,71)" stroke="rgb(199,21,71)" stroke-width="1" opacity="0.14901960784313725" d="M 252.5 333 L 253.5 335 L 252 334.5 L 251.5 336 L 250 335.5 L 249.5 337 L 249 335.5 L 252.5 333 Z " /><path fill="rgb(199,21,71)" stroke="rgb(199,21,71)" stroke-width="1" opacity="0.14901960784313725" d="M 182.5 335 L 181.5 337 L 182.5 335 Z " /><path fill="rgb(199,21,71)" stroke="rgb(199,21,71)" stroke-width="1" opacity="0.14901960784313725" d="M 184.5 336 L 188 338.5 L 185 338.5 L 184.5 337 L 183 337.5 L 184.5 336 Z " /><path fill="rgb(199,21,71)" stroke="rgb(199,21,71)" stroke-width="1" opacity="0.14901960784313725" d="M 247.5 336 L 248 337.5 L 245 338.5 L 244.5 340 L 243 339.5 L 242.5 341 L 242 339.5 L 245.5 337 L 247 337.5 L 247.5 336 Z " /><path fill="rgb(199,21,71)" stroke="rgb(199,21,71)" stroke-width="1" opacity="0.14901960784313725" d="M 191.5 340 L 195 342.5 L 192 342.5 L 191.5 341 L 190 341.5 L 191.5 340 Z " /><path fill="rgb(199,21,71)" stroke="rgb(199,21,71)" stroke-width="1" opacity="0.14901960784313725" d="M 238.5 341 L 239.5 343 L 238 342.5 L 237.5 344 L 236 343.5 L 235.5 345 L 235 343.5 L 238.5 341 Z " /><path fill="rgb(199,21,71)" stroke="rgb(199,21,71)" stroke-width="1" opacity="0.14901960784313725" d="M 198.5 344 L 200 346.5 L 199 346.5 L 198.5 345 L 197 345.5 L 198.5 344 Z " /><path fill="rgb(199,21,71)" stroke="rgb(199,21,71)" stroke-width="1" opacity="0.14901960784313725" d="M 231.5 345 L 231 346.5 L 230.5 348 L 229 347.5 L 228.5 349 L 228 347.5 L 231.5 345 Z " /><path fill="rgb(199,21,71)" stroke="rgb(199,21,71)" stroke-width="1" opacity="0.14901960784313725" d="M 205.5 348 L 204.5 350 L 205.5 348 Z " /><path fill="rgb(199,21,71)" stroke="rgb(199,21,71)" stroke-width="1" opacity="0.14901960784313725" d="M 224.5 349 L 224 350.5 L 223.5 352 L 222 351.5 L 221.5 353 L 221 351.5 L 224.5 349 Z " /><path fill="rgb(199,21,71)" stroke="rgb(199,21,71)" stroke-width="1" opacity="0.14901960784313725" d="M 210.5 351 L 211.5 353 L 213.5 353 L 216.5 354 L 218 353.5 L 215.5 355 L 213 354.5 L 212.5 353 Q 211.3 355.3 210 352.5 L 210.5 351 Z " /><path fill="rgb(0,0,0)" stroke="rgb(0,0,0)" stroke-width="1" opacity="0" d="M 0 0 L 195 0.5 L 174.5 3 L 157.5 7 L 129.5 17 Q 86.7 36.2 57 68.5 Q 32.5 94.5 17 129.5 L 5 165.5 L 0.5 196 L 0 0 Z " /><path fill="rgb(0,0,0)" stroke="rgb(0,0,0)" stroke-width="1" opacity="0" d="M 236.5 0 L 432 0 L 432 194.5 L 431 194.5 L 431 187.5 L 427 165.5 L 415 129.5 Q 395.8 86.7 363.5 57 Q 337.5 32.5 302.5 17 L 270.5 6 L 251.5 2 L 236.5 1 L 236.5 0 Z " /><path fill="rgb(0,0,0)" stroke="rgb(0,0,0)" stroke-width="1" opacity="0" d="M 431.5 236 L 432 432 L 237 431.5 L 257.5 429 L 274.5 425 L 302.5 415 Q 345.3 395.8 375 363.5 Q 399.5 337.5 415 302.5 L 427 266.5 L 431.5 236 Z " /><path fill="rgb(0,0,0)" stroke="rgb(0,0,0)" stroke-width="1" opacity="0" d="M 0.5 237 L 3 257.5 L 7 274.5 L 17 302.5 Q 36.2 345.3 68.5 375 Q 94.5 399.5 129.5 415 L 165.5 427 L 196 431.5 L 0 432 L 0.5 237 Z " /><path fill="rgb(235,20,78)" stroke="rgb(235,20,78)" stroke-width="1" opacity="0.09803921568627451" d="M 195.5 0 L 194.5 2 L 188 1.5 L 195.5 0 Z " /><path fill="rgb(235,20,78)" stroke="rgb(235,20,78)" stroke-width="1" opacity="0.09803921568627451" d="M 197.5 0 L 211 0.5 L 197.5 1 L 197.5 0 Z " /><path fill="rgb(235,20,78)" stroke="rgb(235,20,78)" stroke-width="1" opacity="0.09803921568627451" d="M 221.5 0 L 235 0.5 L 221.5 1 L 221.5 0 Z " /><path fill="rgb(235,20,78)" stroke="rgb(235,20,78)" stroke-width="1" opacity="0.09803921568627451" d="M 237.5 1 L 245 1.5 L 237.5 2 L 237.5 1 Z " /><path fill="rgb(235,20,78)" stroke="rgb(235,20,78)" stroke-width="1" opacity="0.09803921568627451" d="M 181.5 2 L 186 2.5 L 181.5 3 L 181.5 2 Z " /><path fill="rgb(235,20,78)" stroke="rgb(235,20,78)" stroke-width="1" opacity="0.09803921568627451" d="M 246.5 2 L 257 3.5 L 252.5 4 Q 251.2 1.8 246.5 3 L 246.5 2 Z " /><path fill="rgb(235,20,78)" stroke="rgb(235,20,78)" stroke-width="1" opacity="0.09803921568627451" d="M 174.5 3 L 180 3.5 L 155.5 9 L 155.5 8 L 174.5 3 Z " /><path fill="rgb(235,20,78)" stroke="rgb(235,20,78)" stroke-width="1" opacity="0.09803921568627451" d="M 258.5 4 L 262 4.5 L 258.5 5 L 258.5 4 Z " /><path fill="rgb(235,20,78)" stroke="rgb(235,20,78)" stroke-width="1" opacity="0.09803921568627451" d="M 263.5 5 L 277 8.5 L 274.5 9 Q 270.5 6 263.5 6 L 263.5 5 Z " /><path fill="rgb(235,20,78)" stroke="rgb(235,20,78)" stroke-width="1" opacity="0.09803921568627451" d="M 151.5 9 L 154 9.5 Q 124.5 18 101.5 33 Q 73.9 50.4 53 74.5 L 33.5 101 L 33 99.5 L 41 89.5 L 42 86 Q 44.7 87.1 44 84.5 L 58.5 67 L 67 59.5 L 68.5 57 L 76 52 Q 74.9 49.3 77.5 50 L 86 44 Q 84.9 41.3 87.5 42 L 109.5 27 L 129.5 17 L 151.5 9 Z " /><path fill="rgb(235,20,78)" stroke="rgb(235,20,78)" stroke-width="1" opacity="0.09803921568627451" d="M 278.5 9 L 289 12.5 L 287.5 13 L 278.5 10 L 278.5 9 Z " /><path fill="rgb(235,20,78)" stroke="rgb(235,20,78)" stroke-width="1" opacity="0.09803921568627451" d="M 293.5 14 L 297 15.5 L 295.5 16 L 293.5 14 Z " /><path fill="rgb(235,20,78)" stroke="rgb(235,20,78)" stroke-width="1" opacity="0.09803921568627451" d="M 298.5 16 L 304 18.5 L 302.5 19 L 298.5 17 L 298.5 16 Z " /><path fill="rgb(235,20,78)" stroke="rgb(235,20,78)" stroke-width="1" opacity="0.09803921568627451" d="M 307.5 20 L 318 25.5 L 316.5 25 L 307.5 21 L 307.5 20 Z " /><path fill="rgb(235,20,78)" stroke="rgb(235,20,78)" stroke-width="1" opacity="0.09803921568627451" d="M 321.5 27 L 330 32.5 L 328.5 32 L 322.5 29 L 321.5 27 Z " /><path fill="rgb(235,20,78)" stroke="rgb(235,20,78)" stroke-width="1" opacity="0.09803921568627451" d="M 331.5 33 L 346 42 Q 344.9 44.7 347.5 44 L 365 58.5 L 372.5 67 L 375 68.5 L 380 76 Q 382.7 74.9 382 77.5 L 388 86 Q 390.7 84.9 390 87.5 L 405 109.5 L 415 129.5 L 425 157.5 L 429 174.5 L 430 185.5 L 429 185.5 L 428 174.5 L 423 154.5 Q 416.3 132.2 406 113.5 Q 386.7 78.3 357.5 53 L 332.5 35 L 331.5 33 Z " /><path fill="rgb(235,20,78)" stroke="rgb(235,20,78)" stroke-width="1" opacity="0.09803921568627451" d="M 32.5 102 L 32 103.5 L 27.5 111 L 28 109.5 L 32.5 102 Z " /><path fill="rgb(235,20,78)" stroke="rgb(235,20,78)" stroke-width="1" opacity="0.09803921568627451" d="M 25.5 114 L 25 115.5 L 20.5 125 L 20 123.5 L 25.5 114 Z " /><path fill="rgb(235,20,78)" stroke="rgb(235,20,78)" stroke-width="1" opacity="0.09803921568627451" d="M 18.5 128 L 19 129.5 L 16.5 134 L 16 132.5 L 18.5 128 Z " /><path fill="rgb(235,20,78)" stroke="rgb(235,20,78)" stroke-width="1" opacity="0.09803921568627451" d="M 15.5 135 L 16 136.5 L 14.5 139 L 14 137.5 L 15.5 135 Z " /><path fill="rgb(235,20,78)" stroke="rgb(235,20,78)" stroke-width="1" opacity="0.09803921568627451" d="M 12.5 143 L 13 144.5 L 9.5 154 L 9 151.5 L 12.5 143 Z " /><path fill="rgb(235,20,78)" stroke="rgb(235,20,78)" stroke-width="1" opacity="0.09803921568627451" d="M 8.5 155 L 9 157.5 L 5.5 169 L 5 165.5 L 8.5 155 Z " /><path fill="rgb(235,20,78)" stroke="rgb(235,20,78)" stroke-width="1" opacity="0.09803921568627451" d="M 4.5 170 L 5 173.5 L 4 173.5 L 4.5 170 Z " /><path fill="rgb(235,20,78)" stroke="rgb(235,20,78)" stroke-width="1" opacity="0.09803921568627451" d="M 3.5 175 L 4 179.5 L 2.5 186 L 2 180.5 L 3.5 175 Z " /><path fill="rgb(235,20,78)" stroke="rgb(235,20,78)" stroke-width="1" opacity="0.09803921568627451" d="M 1.5 187 L 2 194.5 L 1 194.5 L 1.5 187 Z " /><path fill="rgb(235,20,78)" stroke="rgb(235,20,78)" stroke-width="1" opacity="0.09803921568627451" d="M 430.5 187 L 432 195.5 L 432 210.5 L 431 210.5 L 430.5 187 Z " /><path fill="rgb(235,20,78)" stroke="rgb(235,20,78)" stroke-width="1" opacity="0.09803921568627451" d="M 0.5 196 L 1 210.5 L 0 210.5 L 0.5 196 Z " /><path fill="rgb(235,20,78)" stroke="rgb(235,20,78)" stroke-width="1" opacity="0.09803921568627451" d="M 0.5 221 L 2 244.5 L 1 244.5 L 0.5 221 Z " /><path fill="rgb(235,20,78)" stroke="rgb(235,20,78)" stroke-width="1" opacity="0.09803921568627451" d="M 431.5 221 L 432 235.5 L 431 235.5 L 431.5 221 Z " /><path fill="rgb(235,20,78)" stroke="rgb(235,20,78)" stroke-width="1" opacity="0.09803921568627451" d="M 430.5 237 L 431 244.5 L 430 244.5 L 430.5 237 Z " /><path fill="rgb(235,20,78)" stroke="rgb(235,20,78)" stroke-width="1" opacity="0.09803921568627451" d="M 2.5 246 L 4 257.5 L 9 277.5 Q 15.7 299.8 26 318.5 Q 45.3 353.7 74.5 379 Q 111.8 412.7 169 426.5 L 165.5 427 Q 134.3 419.2 109.5 405 Q 79.6 387.9 57 363.5 Q 32.5 337.5 17 302.5 L 7 274.5 L 2 251.5 L 2.5 246 Z " /><path fill="rgb(235,20,78)" stroke="rgb(235,20,78)" stroke-width="1" opacity="0.09803921568627451" d="M 429.5 246 L 430 251.5 L 428.5 257 L 428 252.5 L 429.5 246 Z " /><path fill="rgb(235,20,78)" stroke="rgb(235,20,78)" stroke-width="1" opacity="0.09803921568627451" d="M 427.5 258 L 428 261.5 L 427 261.5 L 427.5 258 Z " /><path fill="rgb(235,20,78)" stroke="rgb(235,20,78)" stroke-width="1" opacity="0.09803921568627451" d="M 426.5 263 L 427 266.5 Q 419.2 297.7 405 322.5 Q 387.9 352.4 363.5 375 Q 345.1 392.1 322.5 405 Q 303.1 416.6 278.5 423 L 278.5 422 L 304.5 413 L 330.5 399 Q 358.1 381.6 379 357.5 Q 412.7 320.2 426.5 263 Z " /><path fill="rgb(235,20,78)" stroke="rgb(235,20,78)" stroke-width="1" opacity="0.09803921568627451" d="M 274.5 423 L 277 423.5 Q 266.6 428.1 252.5 429 L 252.5 428 L 266.5 426 L 274.5 423 Z " /><path fill="rgb(235,20,78)" stroke="rgb(235,20,78)" stroke-width="1" opacity="0.09803921568627451" d="M 170.5 427 L 174 427.5 L 170.5 428 L 170.5 427 Z " /><path fill="rgb(235,20,78)" stroke="rgb(235,20,78)" stroke-width="1" opacity="0.09803921568627451" d="M 175.5 428 L 186 429.5 L 180.5 430 L 175.5 429 L 175.5 428 Z " /><path fill="rgb(235,20,78)" stroke="rgb(235,20,78)" stroke-width="1" opacity="0.09803921568627451" d="M 246.5 429 L 251 429.5 L 246.5 430 L 246.5 429 Z " /><path fill="rgb(235,20,78)" stroke="rgb(235,20,78)" stroke-width="1" opacity="0.09803921568627451" d="M 187.5 430 L 195 430.5 L 187.5 431 L 187.5 430 Z " /><path fill="rgb(235,20,78)" stroke="rgb(235,20,78)" stroke-width="1" opacity="0.09803921568627451" d="M 237.5 430 L 244 430.5 L 236.5 432 L 237.5 430 Z " /><path fill="rgb(235,20,78)" stroke="rgb(235,20,78)" stroke-width="1" opacity="0.09803921568627451" d="M 197.5 431 L 211 431.5 L 197.5 432 L 197.5 431 Z " /><path fill="rgb(235,20,78)" stroke="rgb(235,20,78)" stroke-width="1" opacity="0.09803921568627451" d="M 221.5 431 L 235 431.5 L 221.5 432 L 221.5 431 Z " /><path fill="rgb(235,20,78)" stroke="rgb(235,20,78)" stroke-width="1" opacity="0.10196078431372549" d="M 211.5 0 L 236.5 1 L 237.5 2 L 245.5 2 L 262.5 5 Q 285.2 10.3 304.5 19 Q 348.2 39.3 378 73.5 Q 403 101.5 418 139.5 L 428 174.5 L 428 179.5 L 430 186.5 L 430 194.5 L 431 195.5 L 432 220.5 L 431 221.5 L 430 245.5 L 427 262.5 Q 421.7 285.2 413 304.5 Q 392.7 348.2 358.5 378 Q 330.5 403 292.5 418 L 257.5 428 L 252.5 428 L 245.5 430 L 237.5 430 L 236.5 431 L 211.5 432 L 210.5 431 L 186.5 430 L 169.5 427 Q 146.8 421.7 127.5 413 Q 83.8 392.7 54 358.5 Q 29 330.5 14 292.5 L 4 257.5 L 4 252.5 L 2 245.5 L 2 237.5 L 1 236.5 L 0 211.5 L 1 210.5 L 2 186.5 L 5 169.5 Q 10.3 146.8 19 127.5 Q 39.3 83.8 73.5 54 Q 101.5 29 139.5 14 L 174.5 4 L 179.5 4 L 186.5 2 L 194.5 2 L 195.5 1 L 210.5 1 L 211.5 0 Z M 184 77 L 177 80 L 175 80 L 174 82 L 173 81 L 172 83 L 171 82 L 170 84 L 166 85 L 164 85 L 163 87 L 162 86 L 161 88 L 160 87 L 159 89 L 152 92 L 150 92 Q 151 94 149 93 L 147 93 L 146 95 L 145 94 L 144 96 L 138 98 L 135 99 Q 136 101 134 100 L 132 100 L 131 102 L 127 103 L 124 104 Q 125 106 123 105 L 121 105 L 120 107 L 119 106 L 118 108 L 114 110 L 112 109 L 111 111 L 110 110 L 109 112 L 108 111 L 107 113 L 106 112 L 105 114 L 98 117 L 96 117 Q 97 119 95 118 L 93 118 L 92 120 L 87 122 L 84 123 L 85 139 L 85 141 Q 88 146 86 156 L 87 157 L 86 160 L 87 161 L 87 173 L 88 174 L 89 203 L 89 205 Q 92 210 90 220 L 91 221 L 93 267 L 95 272 L 98 266 Q 97 263 100 264 L 99 263 L 101 262 L 100 261 L 114 231 Q 113 228 116 229 L 115 228 L 118 223 Q 117 220 120 221 L 119 220 L 121 216 Q 120 213 123 214 L 122 213 L 124 212 L 123 211 L 125 208 Q 124 205 127 206 L 126 205 L 128 201 Q 127 198 130 199 L 129 198 L 135 186 Q 134 183 137 184 L 137 182 Q 136 179 139 180 L 138 179 L 140 178 L 139 177 L 144 167 Q 143 164 146 165 L 145 164 L 147 163 L 146 162 L 151 152 Q 150 149 153 150 L 152 149 L 154 148 L 153 147 L 157 139 Q 156 136 159 137 L 158 136 L 164 124 Q 163 121 166 122 L 165 121 L 171 109 Q 170 106 173 107 L 172 106 L 174 102 Q 173 99 176 100 L 175 99 L 177 98 L 176 97 L 182 85 Q 181 82 184 83 L 183 82 L 185 81 L 185 79 Q 186 76 184 77 Z M 247 77 L 248 80 L 247 82 L 249 82 L 248 84 L 250 84 L 249 86 L 251 86 L 250 88 L 252 88 L 255 95 L 254 97 L 256 97 L 255 99 L 257 99 L 256 101 L 258 101 L 257 103 L 259 103 L 262 112 L 262 114 L 264 114 L 263 116 L 265 116 L 264 118 L 266 118 L 267 123 L 268 125 Q 270 124 269 127 L 269 129 L 271 129 L 274 138 L 275 140 Q 277 139 276 142 L 276 144 L 278 144 L 281 153 L 282 155 Q 284 154 283 157 L 283 159 L 285 159 L 288 166 L 287 168 L 289 168 L 289 170 Q 291 169 290 172 L 290 174 L 292 174 L 294 179 L 293 181 L 295 181 L 294 183 L 296 183 L 295 185 L 297 185 L 301 194 L 300 196 L 302 196 L 301 198 L 303 198 L 302 200 L 304 200 L 308 210 L 308 211 Q 310 210 309 213 L 309 215 L 311 215 L 310 217 L 312 217 L 313 222 L 314 224 Q 316 223 315 226 L 315 228 L 317 228 L 320 237 L 321 239 Q 323 238 322 241 L 322 243 L 324 243 L 327 252 L 328 254 Q 330 253 329 256 L 329 258 L 331 258 L 334 267 L 334 269 L 336 269 L 338 272 L 338 263 L 339 262 L 339 250 L 340 249 L 342 203 L 343 202 L 342 199 L 343 198 L 343 186 L 344 185 L 346 139 L 347 138 L 346 135 L 347 134 L 347 124 L 342 120 Q 339 121 340 119 L 339 119 L 329 114 Q 326 115 327 113 L 326 113 L 322 111 Q 319 112 320 110 L 319 110 L 303 102 Q 300 103 301 101 L 300 101 L 288 95 Q 285 96 286 94 L 285 94 L 264 84 Q 261 85 262 83 L 261 83 L 247 77 Z M 217 150 L 215 152 Q 216 154 214 153 L 214 155 L 210 164 Q 211 166 209 165 L 209 167 L 203 181 Q 204 183 202 182 L 202 184 L 182 232 Q 183 234 181 233 L 181 235 L 179 239 L 252 239 L 247 227 L 248 225 L 247 224 L 247 223 L 245 222 L 240 210 L 241 208 L 239 207 L 238 203 L 238 201 L 236 200 L 231 186 L 231 184 L 229 183 L 228 181 L 229 179 L 227 178 L 226 174 L 226 172 L 224 171 L 225 169 L 223 168 L 219 159 L 220 157 L 219 156 L 219 154 Q 216 155 217 153 Q 219 151 217 150 Z M 161 281 L 160 284 Q 161 286 159 285 L 159 287 L 153 301 Q 154 303 152 302 L 152 304 L 147 316 L 154 319 L 155 322 L 157 321 L 163 324 L 164 327 L 166 326 L 166 328 L 168 327 L 168 329 L 170 328 L 171 331 L 173 330 L 184 336 L 185 339 L 187 338 L 191 340 L 192 343 L 194 342 L 198 344 L 199 347 L 201 346 L 207 349 L 208 352 L 210 351 L 210 353 L 212 352 L 213 355 L 216 355 L 220 353 L 222 353 L 222 352 L 224 352 L 224 351 Q 225 348 227 350 L 227 349 L 229 349 L 229 348 L 231 348 L 231 347 L 234 345 L 236 345 L 236 344 L 238 344 L 238 343 L 241 341 L 243 341 L 243 340 L 245 340 L 245 339 Q 246 336 248 338 L 248 337 L 250 337 L 250 336 L 252 336 L 252 335 L 255 333 L 257 333 L 257 332 L 259 332 L 259 331 L 262 329 L 264 329 L 264 328 L 266 328 L 266 327 L 269 325 L 271 325 L 271 324 L 273 324 L 273 323 L 278 320 L 280 320 L 280 319 L 283 317 L 285 317 L 281 306 L 281 303 Q 278 304 279 301 L 279 299 L 277 298 L 274 289 L 274 287 L 272 286 L 271 283 L 270 281 L 161 281 Z " /></svg>