<?xml version="1.0" encoding="UTF-8"?>
<svg version="1.1" xmlns="http://www.w3.org/2000/svg" width="512" height="512">
<path d="M0 0 C0.76316528 0.00359528 1.52633057 0.00719055 2.31262207 0.01089478 C3.51253029 0.01067574 3.51253029 0.01067574 4.73667908 0.01045227 C7.39344958 0.01115161 10.05015086 0.01894498 12.70690918 0.02676392 C14.54393984 0.02862802 16.38097099 0.03005196 18.21800232 0.03105164 C23.06284955 0.03487742 27.90766701 0.04470821 32.75250244 0.05575562 C37.69237871 0.06596845 42.63225978 0.07054898 47.57214355 0.07559204 C57.27202646 0.08633042 66.97188722 0.10340756 76.67175293 0.12442017 C78.06055795 4.90438188 79.23693804 9.63021465 80.17956543 14.51895142 C80.3099118 15.19238083 80.44025818 15.86581024 80.57455444 16.55964661 C80.84656204 17.96856496 81.11706421 19.37777473 81.3861084 20.78726196 C81.79910496 22.94923265 82.21749495 25.11010993 82.63659668 27.27090454 C84.67175293 37.839612 84.67175293 37.839612 84.67175293 40.12442017 C85.24538574 40.18758423 85.81901855 40.25074829 86.41003418 40.31582642 C104.77782309 42.96368673 125.32836046 51.89549185 140.67175293 62.12442017 C144.85106604 61.89275092 148.14684976 58.98670142 151.48425293 56.68692017 C152.81486363 55.78440173 154.14559664 54.88206361 155.47644043 53.97988892 C156.16189941 53.51244263 156.8473584 53.04499634 157.55358887 52.56338501 C161.05578019 50.18418772 164.58352743 47.84353281 168.10925293 45.49942017 C169.37890402 44.65324578 170.6484465 43.8069084 171.91784668 42.96035767 C172.82663574 42.35449829 173.7354248 41.74863892 174.67175293 41.12442017 C178.60642842 42.71689571 181.24753069 45.43104385 184.17468262 48.40029907 C184.7117131 48.93703751 185.24874359 49.47377594 185.80204773 50.02677917 C187.57069152 51.796813 189.33215117 53.57381873 191.09362793 55.35098267 C192.32058759 56.58167361 193.54799042 57.81192287 194.77581787 59.04174805 C198.00242781 62.27598532 201.22298584 65.51618424 204.44232178 68.75765991 C207.73000965 72.0658255 211.02338361 75.36831963 214.31628418 78.67129517 C220.77368591 85.15013096 227.22470861 91.63527886 233.67175293 98.12442017 C231.9988099 102.5293209 229.75447223 106.24570233 227.10925293 110.12442017 C226.67250244 110.77652466 226.23575195 111.42862915 225.7857666 112.10049438 C223.57547893 115.38628298 221.32128523 118.62847287 218.97644043 121.81973267 C218.55693115 122.39852173 218.13742187 122.97731079 217.7052002 123.57363892 C216.54605209 125.16459924 215.36913873 126.74257138 214.19128418 128.31973267 C212.49161889 130.93513164 212.49161889 130.93513164 212.64831543 133.46035767 C214.15606265 137.38510425 216.18665103 140.95874096 218.23425293 144.62442017 C225.23570894 157.53386764 234.67175293 175.10503347 234.67175293 190.12442017 C235.46235107 190.26541138 236.25294922 190.40640259 237.06750488 190.55166626 C240.7064546 191.2007288 244.34535403 191.85007279 247.98425293 192.49942017 C249.22755371 192.72113892 250.47085449 192.94285767 251.75183105 193.17129517 C254.21577184 193.61105363 256.67948019 194.05211663 259.14294434 194.49453735 C261.43050758 194.90286122 263.71919689 195.30494525 266.00915527 195.69961548 C267.00511719 195.87331665 268.0010791 196.04701782 269.02722168 196.22598267 C269.90402588 196.37631958 270.78083008 196.52665649 271.6842041 196.68154907 C273.67175293 197.12442017 273.67175293 197.12442017 274.67175293 198.12442017 C274.76681345 200.68031905 274.79732054 203.20909988 274.78527832 205.76528931 C274.78542435 206.56522812 274.78557037 207.36516693 274.78572083 208.18934631 C274.78502148 210.84611681 274.77722811 213.50281809 274.76940918 216.15957642 C274.76754508 217.99660707 274.76612114 219.83363823 274.76512146 221.67066956 C274.76129568 226.51551679 274.75146489 231.36033424 274.74041748 236.20516968 C274.73020465 241.14504595 274.72562412 246.08492701 274.72058105 251.02481079 C274.70984267 260.7246937 274.69276553 270.42455446 274.67175293 280.12442017 C269.89179121 281.51322518 265.16595844 282.68960528 260.27722168 283.63223267 C259.60379227 283.76257904 258.93036285 283.89292542 258.23652649 284.02722168 C256.82760814 284.29922928 255.41839837 284.56973144 254.00891113 284.83877563 C251.84694045 285.25177219 249.68606317 285.67016219 247.52526855 286.08926392 C236.9565611 288.12442017 236.9565611 288.12442017 234.67175293 288.12442017 C234.36237793 290.04254517 234.36237793 290.04254517 234.04675293 291.99942017 C230.47990509 309.34837396 223.29995478 326.75752091 214.01403809 341.81192017 C212.50556523 343.95086471 212.50556523 343.95086471 212.70690918 346.01113892 C214.16845783 349.21234466 216.11930427 352.04914074 218.10925293 354.93692017 C219.01177137 356.26753086 219.91410949 357.59826388 220.81628418 358.92910767 C221.28373047 359.61456665 221.75117676 360.30002563 222.23278809 361.0062561 C224.61198537 364.50844743 226.95264029 368.03619467 229.29675293 371.56192017 C230.14292731 372.83157125 230.9892647 374.10111373 231.83581543 375.37051392 C232.4416748 376.27930298 233.04753418 377.18809204 233.67175293 378.12442017 C232.07927739 382.05909566 229.36512924 384.70019793 226.39587402 387.62734985 C225.85913559 388.16438034 225.32239716 388.70141083 224.76939392 389.25471497 C222.9993601 391.02335875 221.22235436 392.7848184 219.44519043 394.54629517 C218.21449949 395.77325483 216.98425023 397.00065766 215.75442505 398.22848511 C212.52018777 401.45509504 209.27998885 404.67565307 206.03851318 407.89498901 C202.73034759 411.18267689 199.42785347 414.47605085 196.12487793 417.76895142 C189.64604214 424.22635315 183.16089424 430.67737585 176.67175293 437.12442017 C172.87326164 435.65962176 169.73182803 433.9814161 166.35925293 431.68692017 C165.32026855 430.98824829 164.28128418 430.28957642 163.21081543 429.56973267 C160.61269199 427.7925389 158.05656893 425.96363803 155.50769043 424.11660767 C154.79910889 423.61057007 154.09052734 423.10453247 153.36047363 422.5831604 C151.96175891 421.58242651 150.57190159 420.56917511 149.1920166 419.54263306 C145.54345771 416.88211664 145.54345771 416.88211664 141.23034668 416.03067017 C137.3997062 417.66819587 133.8062851 419.6567166 130.17175293 421.68692017 C117.26230545 428.68837618 99.69113963 438.12442017 84.67175293 438.12442017 C84.53076172 438.91501831 84.38977051 439.70561646 84.24450684 440.52017212 C83.5954443 444.15912183 82.9461003 447.79802127 82.29675293 451.43692017 C82.07503418 452.68022095 81.85331543 453.92352173 81.62487793 455.20449829 C81.18511947 457.66843908 80.74405647 460.13214742 80.30163574 462.59561157 C79.89331187 464.88317482 79.49122784 467.17186412 79.09655762 469.46182251 C78.92285645 470.45778442 78.74915527 471.45374634 78.57019043 472.47988892 C78.41985352 473.35669312 78.2695166 474.23349731 78.11462402 475.13687134 C77.67175293 477.12442017 77.67175293 477.12442017 76.67175293 478.12442017 C74.11585405 478.21948069 71.58707321 478.24998778 69.03088379 478.23794556 C67.83097557 478.2381646 67.83097557 478.2381646 66.60682678 478.23838806 C63.95005628 478.23768872 61.293355 478.22989535 58.63659668 478.22207642 C56.79956602 478.22021231 54.96253487 478.21878837 53.12550354 478.2177887 C48.28065631 478.21396292 43.43583885 478.20413212 38.59100342 478.19308472 C33.65112715 478.18287188 28.71124608 478.17829135 23.7713623 478.17324829 C14.0714794 478.16250991 4.37161864 478.14543277 -5.32824707 478.12442017 C-6.86719977 473.63428192 -7.96819823 469.27957268 -8.83605957 464.60879517 C-8.96640594 463.91175476 -9.09675232 463.21471436 -9.23104858 462.49655151 C-9.50356689 461.03466306 -9.77405636 459.57239507 -10.04260254 458.10977173 C-10.45472797 455.86635883 -10.873388 453.62423907 -11.29309082 451.38223267 C-13.32824707 440.43075094 -13.32824707 440.43075094 -13.32824707 438.12442017 C-14.24900024 437.9600647 -14.24900024 437.9600647 -15.18835449 437.79238892 C-21.19168982 436.66472222 -26.88343578 435.15717444 -32.64074707 433.12442017 C-33.48451904 432.82825806 -34.32829102 432.53209595 -35.19763184 432.22695923 C-46.08862327 428.27971369 -57.44850374 423.61654338 -67.17590332 417.26504517 C-69.20023094 415.96958642 -69.20023094 415.96958642 -71.21496582 416.15957642 C-74.41617156 417.62112506 -77.25296765 419.57197151 -80.14074707 421.56192017 C-81.47135777 422.4644386 -82.80209079 423.36677672 -84.13293457 424.26895142 C-84.81839355 424.73639771 -85.50385254 425.20384399 -86.21008301 425.68545532 C-89.71227433 428.06465261 -93.24002157 430.40530753 -96.76574707 432.74942017 C-98.03539816 433.59559455 -99.30494064 434.44193193 -100.57434082 435.28848267 C-101.48312988 435.89434204 -102.39191895 436.50020142 -103.32824707 437.12442017 C-107.26292256 435.53194462 -109.90402483 432.81779648 -112.83117676 429.84854126 C-113.36820724 429.31180283 -113.90523773 428.77506439 -114.45854187 428.22206116 C-116.22718566 426.45202734 -117.98864531 424.6750216 -119.75012207 422.89785767 C-120.97708173 421.66716672 -122.20448456 420.43691746 -123.43231201 419.20709229 C-126.65892195 415.97285501 -129.87947998 412.73265609 -133.09881592 409.49118042 C-136.38650379 406.18301483 -139.67987775 402.8805207 -142.97277832 399.57754517 C-149.43018005 393.09870938 -155.88120275 386.61356148 -162.32824707 380.12442017 C-160.65530404 375.71951943 -158.41096637 372.00313801 -155.76574707 368.12442017 C-155.32899658 367.47231567 -154.89224609 366.82021118 -154.44226074 366.14834595 C-152.23197307 362.86255736 -149.97777937 359.62036747 -147.63293457 356.42910767 C-147.00367065 355.56092407 -147.00367065 355.56092407 -146.36169434 354.67520142 C-145.20254623 353.08424109 -144.02563287 351.50626895 -142.84777832 349.92910767 C-141.14811303 347.31370869 -141.14811303 347.31370869 -141.30480957 344.78848267 C-142.81255679 340.86373608 -144.84314517 337.29009937 -146.89074707 333.62442017 C-153.89220308 320.71497269 -163.32824707 303.14380687 -163.32824707 288.12442017 C-164.50628906 287.92078857 -164.50628906 287.92078857 -165.70812988 287.71304321 C-169.3323108 287.08389691 -172.95526745 286.44794627 -176.57824707 285.81192017 C-177.81316895 285.59858032 -179.04809082 285.38524048 -180.32043457 285.16543579 C-181.54504395 284.94951782 -182.76965332 284.73359985 -184.03137207 284.51113892 C-185.14157715 284.31737671 -186.25178223 284.1236145 -187.39562988 283.92398071 C-192.74596818 282.83617602 -198.03146101 281.44861668 -203.32824707 280.12442017 C-203.32824707 253.06442017 -203.32824707 226.00442017 -203.32824707 198.12442017 C-189.82824707 194.74942017 -189.82824707 194.74942017 -184.03137207 193.73770142 C-182.8067627 193.52178345 -181.58215332 193.30586548 -180.32043457 193.08340454 C-179.0855127 192.8700647 -177.85059082 192.65672485 -176.57824707 192.43692017 C-175.29691895 192.21197876 -174.01559082 191.98703735 -172.69543457 191.75527954 C-169.57368993 191.2078094 -166.45131831 190.66426168 -163.32824707 190.12442017 C-163.21795166 189.43187134 -163.10765625 188.73932251 -162.99401855 188.02578735 C-161.95827509 181.89418604 -160.59230079 176.18657375 -158.39074707 170.37442017 C-158.09788818 169.58873657 -157.8050293 168.80305298 -157.5032959 167.99356079 C-153.10497422 156.54389078 -148.14759625 144.35344394 -141.32824707 134.12442017 C-141.65571538 130.48419106 -143.6074687 127.95461979 -145.64074707 124.99942017 C-146.34844238 123.96043579 -147.0561377 122.92145142 -147.78527832 121.85098267 C-148.18311523 121.26993774 -148.58095215 120.68889282 -148.99084473 120.09024048 C-151.63378563 116.20543578 -154.22596445 112.28651966 -156.82824707 108.37442017 C-157.88014949 106.79617457 -158.93221851 105.21804 -159.98449707 103.64004517 C-160.76574707 102.46817017 -161.54699707 101.29629517 -162.32824707 100.12442017 C-160.73577153 96.18974467 -158.02162338 93.5486424 -155.05236816 90.62149048 C-154.51562973 90.08445999 -153.9788913 89.5474295 -153.42588806 88.99412537 C-151.65585424 87.22548158 -149.8788485 85.46402193 -148.10168457 83.70254517 C-146.87099363 82.47558551 -145.64074437 81.24818267 -144.41091919 80.02035522 C-141.17668191 76.79374529 -137.93648299 73.57318726 -134.69500732 70.35385132 C-131.38684173 67.06616345 -128.08434761 63.77278949 -124.78137207 60.47988892 C-118.30253628 54.02248719 -111.81738838 47.57146448 -105.32824707 41.12442017 C-102.04342877 42.40431915 -99.17991526 43.72663725 -96.25402832 45.69863892 C-95.13580688 46.44851074 -95.13580688 46.44851074 -93.99499512 47.21353149 C-93.21809326 47.74099976 -92.44119141 48.26846802 -91.64074707 48.81192017 C-90.83999756 49.34776733 -90.03924805 49.8836145 -89.2142334 50.43569946 C-85.79594051 52.73176427 -82.39767687 55.03792949 -79.10168457 57.50723267 C-77.82164551 58.46242798 -77.82164551 58.46242798 -76.51574707 59.43692017 C-75.4542041 60.26643188 -75.4542041 60.26643188 -74.37121582 61.11270142 C-72.37491611 62.29741415 -72.37491611 62.29741415 -70.09777832 62.07754517 C-66.08055853 60.69503229 -62.52955413 58.62942334 -58.82824707 56.56192017 C-45.91879959 49.56046416 -28.34763377 40.12442017 -13.32824707 40.12442017 C-13.18725586 39.33382202 -13.04626465 38.54322388 -12.90100098 37.72866821 C-12.25193844 34.0897185 -11.60259444 30.45081906 -10.95324707 26.81192017 C-10.73152832 25.56861938 -10.50980957 24.3253186 -10.28137207 23.04434204 C-9.84161361 20.58040125 -9.40055061 18.11669291 -8.95812988 15.65322876 C-8.54980602 13.36566551 -8.14772198 11.07697621 -7.75305176 8.78701782 C-7.57935059 7.79105591 -7.40564941 6.79509399 -7.22668457 5.76895142 C-7.0011792 4.45374512 -7.0011792 4.45374512 -6.77111816 3.11196899 C-5.88597159 -0.86045563 -3.64371385 0.00724523 0 0 Z M-36.32824707 133.12442017 C-37.8654541 134.21690063 -37.8654541 134.21690063 -39.43371582 135.33145142 C-67.85833197 156.08980151 -84.90867343 185.69090513 -91.32824707 220.12442017 C-96.28607965 252.93790117 -87.73772035 286.64234837 -68.57824707 313.58535767 C-45.87131665 343.54589085 -15.63652393 361.31359582 21.56628418 366.68692017 C41.49537895 369.05321576 61.94977768 366.16931143 80.67175293 359.12442017 C81.66102783 358.75341187 81.66102783 358.75341187 82.67028809 358.37490845 C114.03352745 346.3039637 139.58636997 320.99978371 153.35534668 290.47598267 C167.04955319 258.65819928 166.92265695 223.72099374 154.64538574 191.55947876 C141.61125802 158.9610861 115.71826154 134.00888593 83.67175293 120.12442017 C44.8552986 104.50613834 -1.97198896 108.61264702 -36.32824707 133.12442017 Z " fill="#5DB7E0" transform="translate(220.3282470703125,16.875579833984375)"/>
<path d="M0 0 C0.62326172 0.29600098 1.24652344 0.59200195 1.88867188 0.89697266 C17.46782549 8.39879715 30.59929435 19.06689261 43 31 C43.67933594 31.61617187 44.35867188 32.23234375 45.05859375 32.8671875 C56.30469507 43.38848811 65.0130768 56.63705174 72.07275391 70.22753906 C72.90029265 71.80940618 73.7660211 73.37115949 74.63671875 74.9296875 C94.20834106 111.19626323 95.46847163 156.2730247 84.30859375 195.203125 C76.12639837 221.32826974 61.85617472 243.42522106 43 263 C42.29875 263.76441406 41.5975 264.52882813 40.875 265.31640625 C15.53889199 292.1400509 -25.45991026 309.66182215 -62.05957031 311.12207031 C-76.69368294 311.46412364 -90.7331714 311.38855358 -105 308 C-106.41209615 307.7038461 -107.82488187 307.41096421 -109.23828125 307.12109375 C-138.83943249 300.8702515 -165.23875099 285.85603899 -187 265 C-187.86753906 264.195625 -188.73507813 263.39125 -189.62890625 262.5625 C-213.88890178 239.3722909 -228.65481068 207.60193312 -235 175 C-235.22816406 173.8965625 -235.45632812 172.793125 -235.69140625 171.65625 C-241.37358784 139.54993722 -235.24254172 105.06228878 -221 76 C-220.67161133 75.31486328 -220.34322266 74.62972656 -220.00488281 73.92382812 C-212.59203546 58.59127206 -202.77819224 45.2893985 -191 33 C-190.195625 32.13246094 -189.39125 31.26492187 -188.5625 30.37109375 C-176.8112398 18.07773673 -163.09344378 8.71770653 -148 1 C-147.3076123 0.64421875 -146.61522461 0.2884375 -145.90185547 -0.078125 C-129.52978412 -8.38645263 -113.03984254 -12.83933087 -95 -16 C-93.91589844 -16.19464844 -92.83179688 -16.38929687 -91.71484375 -16.58984375 C-59.86139939 -20.10678556 -28.67142528 -13.79904237 0 0 Z M-145 41 C-146.53720703 42.09248047 -146.53720703 42.09248047 -148.10546875 43.20703125 C-176.5300849 63.96538134 -193.58042636 93.56648496 -200 128 C-204.95783258 160.81348101 -196.40947328 194.51792821 -177.25 221.4609375 C-154.54306958 251.42147069 -124.30827686 269.18917566 -87.10546875 274.5625 C-67.17637398 276.92879559 -46.72197525 274.04489126 -28 267 C-27.0107251 266.6289917 -27.0107251 266.6289917 -26.00146484 266.25048828 C5.36177452 254.17954354 30.91461705 228.87536354 44.68359375 198.3515625 C58.37780026 166.53377911 58.25090402 131.59657357 45.97363281 99.43505859 C32.93950509 66.83666594 7.04650861 41.88446577 -25 28 C-63.81645433 12.38171818 -110.64374189 16.48822685 -145 41 Z " fill="#5556A5" transform="translate(329,109)"/>
<path d="M0 0 C1.15564453 -0.020625 2.31128906 -0.04125 3.50195312 -0.0625 C13.12445231 -0.1062138 21.02209707 1.24399145 28.64453125 7.390625 C33.52293894 12.44971446 36.08918377 19.05450046 36.5078125 26.0234375 C36.26467615 33.72275512 34.11848173 39.5921691 28.57421875 45.1015625 C21.68583833 51.40618187 16.81148583 52.55311233 7.625 52.375 C6.74134766 52.36597656 5.85769531 52.35695313 4.94726562 52.34765625 C2.77722641 52.32419637 0.60732753 52.28832865 -1.5625 52.25 C-1.54678955 53.10231201 -1.5310791 53.95462402 -1.51489258 54.83276367 C-1.46361038 58.01031226 -1.42607518 61.18764913 -1.39770508 64.36547852 C-1.38266568 65.73794517 -1.36222867 67.11036414 -1.33618164 68.48266602 C-1.29958779 70.46088656 -1.28433302 72.43946514 -1.26953125 74.41796875 C-1.2538208 75.60672607 -1.23811035 76.7954834 -1.22192383 78.02026367 C-1.59590709 81.56680462 -2.46013287 83.404258 -4.5625 86.25 C-7.10479606 88.17863839 -8.34595018 88.25902291 -11.5625 88.125 C-15.13530775 87.08293107 -16.31157308 86.19930556 -18.5625 83.25 C-18.95744368 80.59445222 -19.11039245 78.35251415 -19.08007812 75.69921875 C-19.0870874 74.94428131 -19.09409668 74.18934387 -19.10131836 73.41152954 C-19.11890198 70.91981052 -19.10727511 68.42923026 -19.09375 65.9375 C-19.09644483 64.20401797 -19.10032717 62.47053741 -19.10534668 60.73706055 C-19.1112422 57.10548499 -19.10267726 53.4743032 -19.08398438 49.84277344 C-19.06119454 45.18855955 -19.07431737 40.53526829 -19.09827423 35.88108826 C-19.11273091 32.30197197 -19.10812687 28.7230743 -19.09776306 25.14395142 C-19.0950954 23.42794689 -19.09836693 21.71192249 -19.10768127 19.99594116 C-19.11784508 17.59702004 -19.10235007 15.19959125 -19.08007812 12.80078125 C-19.08817505 12.09208893 -19.09627197 11.38339661 -19.10461426 10.65322876 C-19.04621741 7.25677406 -18.7915566 5.53935163 -16.65515137 2.84057617 C-11.6521331 -0.96210294 -6.07048511 0.02646533 0 0 Z M-1.5625 17.25 C-1.5625 23.52 -1.5625 29.79 -1.5625 36.25 C7.92476086 36.74877221 7.92476086 36.74877221 16.4375 33.25 C18.62434033 29.671534 19.75632658 27.65283695 18.8125 23.5 C16.68606441 20.02037813 15.3499391 18.55414637 11.4375 17.25 C7.10078697 17.11498403 2.77738266 17.20703086 -1.5625 17.25 Z " fill="#8379FF" transform="translate(264.5625,211.75)"/>
<path d="M0 0 C4.15420643 2.70021439 5.86702601 5.13596424 7.62109375 9.72265625 C8.07508545 10.88482666 8.52907715 12.04699707 8.99682617 13.24438477 C9.47727076 14.51700682 9.95748929 15.78971423 10.4375 17.0625 C10.94677253 18.38072722 11.4576295 19.69834328 11.9699707 21.01538086 C12.78349332 23.10813187 13.5954944 25.2013856 14.40190125 27.29689026 C16.50182162 32.75085488 18.66671957 38.17646262 20.859375 43.59375 C21.33933678 44.78163368 21.33933678 44.78163368 21.82899475 45.99351501 C23.09292313 49.12125824 24.35716326 52.24886361 25.62619019 55.37454224 C26.50883901 57.55143702 27.38587501 59.73051631 28.26171875 61.91015625 C28.52470764 62.55476807 28.78769653 63.19937988 29.05865479 63.86352539 C32.41586955 72.25334791 32.41586955 72.25334791 31.375 76.625 C29.60328306 79.68523836 28.28560287 80.68575885 25 82 C21.5 82.1875 21.5 82.1875 18 81 C12.30033076 75.36641388 9.64094762 65.42369469 7 58 C7 57.34 7 56.68 7 56 C0.07 56 -6.86 56 -14 56 C-14.99 59.3 -15.98 62.6 -17 66 C-18.0067445 68.53181291 -19.08409132 71.03742653 -20.25 73.5 C-20.79140625 74.6859375 -21.3328125 75.871875 -21.890625 77.09375 C-24 80 -24 80 -27.5234375 81.484375 C-31.75128152 82.11142602 -33.4871027 81.34193154 -37 79 C-38.95781631 75.08436739 -38.50615444 70.74914303 -37.32034302 66.65127563 C-36.3346914 64.03236851 -35.26744358 61.4643838 -34.16015625 58.89453125 C-33.55958656 57.45469124 -33.55958656 57.45469124 -32.94688416 55.98576355 C-31.66528469 52.92226905 -30.36424601 49.86748 -29.0625 46.8125 C-28.22202551 44.81108466 -27.38282192 42.80913513 -26.54492188 40.80664062 C-24.46754367 35.85148544 -22.36485789 30.9074947 -20.25665283 25.96539307 C-18.97867912 22.94968795 -17.72154524 19.92594281 -16.46826172 16.89990234 C-15.66509433 14.97881804 -14.86187391 13.0577559 -14.05859375 11.13671875 C-13.69339127 10.24386673 -13.32818878 9.35101471 -12.95191956 8.43110657 C-12.60741257 7.61296982 -12.26290558 6.79483307 -11.90795898 5.9519043 C-11.46201637 4.87527779 -11.46201637 4.87527779 -11.00706482 3.77690125 C-8.43796094 -0.75611767 -4.65287473 -0.48133187 0 0 Z M-4 32 C-4.66 34.31 -5.32 36.62 -6 39 C-4.02 39 -2.04 39 0 39 C-0.99 36.69 -1.98 34.38 -3 32 C-3.33 32 -3.66 32 -4 32 Z " fill="#8379FF" transform="translate(202,218)"/>
<path d="M0 0 C2.15515137 1.58276367 2.15515137 1.58276367 4 4 C4.39494368 6.65554778 4.54789245 8.89748585 4.51757812 11.55078125 C4.5245874 12.30571869 4.53159668 13.06065613 4.53881836 13.83847046 C4.55640198 16.33018948 4.54477511 18.82076974 4.53125 21.3125 C4.53394483 23.04598203 4.53782717 24.77946259 4.54284668 26.51293945 C4.5487422 30.14451501 4.54017726 33.7756968 4.52148438 37.40722656 C4.49869454 42.06144045 4.51181737 46.71473171 4.53577423 51.36891174 C4.55023091 54.94802803 4.54562687 58.5269257 4.53526306 62.10604858 C4.5325954 63.82205311 4.53586693 65.53807751 4.54518127 67.25405884 C4.55534508 69.65297996 4.53985007 72.05040875 4.51757812 74.44921875 C4.52567505 75.15791107 4.53377197 75.86660339 4.54211426 76.59677124 C4.48440719 79.95310682 4.21739956 81.71621067 2.15124512 84.41333008 C-0.65452997 86.48275439 -2.51923368 86.92896395 -6 87 C-8.76149535 85.8075361 -10.43356026 84.8396313 -12.12345886 82.33470154 C-13.33630234 79.1042456 -13.26234593 76.28123344 -13.2746582 72.83227539 C-13.27976913 72.11795853 -13.28488007 71.40364166 -13.29014587 70.66767883 C-13.30402404 68.31091895 -13.3030865 65.95445209 -13.30078125 63.59765625 C-13.30466914 61.95625195 -13.309004 60.31484865 -13.31376648 58.67344666 C-13.32122484 55.2344944 -13.32094019 51.79564481 -13.31567383 48.35668945 C-13.30987939 43.95383419 -13.3268112 39.55139964 -13.3500185 35.14861393 C-13.36476368 31.75908458 -13.36562649 28.36965637 -13.36250877 24.98010063 C-13.36302158 23.35702112 -13.36825178 21.73393589 -13.37832069 20.11088753 C-13.39068342 17.83935478 -13.38389512 15.5686392 -13.37231445 13.29711914 C-13.37294388 12.00568497 -13.3735733 10.71425079 -13.3742218 9.38368225 C-12.97386107 5.76365399 -12.16073364 3.89436661 -10 1 C-6.62055069 -1.56372016 -3.97046734 -1.15805297 0 0 Z " fill="#8379FF" transform="translate(329,213)"/>
</svg>
