<?xml version="1.0" encoding="UTF-8"?>
<svg version="1.1" xmlns="http://www.w3.org/2000/svg" width="512" height="512">
<path d="M0 0 C6.36794039 2.94451864 8.86855044 8.9482985 11.23828125 15.33984375 C17.74784078 36.00473637 14.97499591 55.7534186 4.99072266 74.93945312 C-5.83576826 94.7756098 -22.42806714 112.46774506 -39.9765625 126.55078125 C-45.2073089 130.78809132 -50.29431755 135.1906182 -55.37792969 139.60253906 C-56.81508937 140.8406941 -58.26961998 142.05862297 -59.7265625 143.2734375 C-70.25414612 152.2636597 -78.70186122 163.1691333 -84 176 C-84.50660156 177.19109375 -84.50660156 177.19109375 -85.0234375 178.40625 C-90.38703971 193.16845791 -86.42643166 207.94729613 -80.0625 221.625 C-75.65308721 230.13157103 -70.11341997 237.8618904 -64.61474609 245.68994141 C-50.01615401 266.57471284 -50.01615401 266.57471284 -48 272 C-48.33 272.99 -48.66 273.98 -49 275 C-113.15089064 216.13212388 -113.15089064 216.13212388 -115.203125 186.01953125 C-115.45844148 168.55162908 -107.92275163 156.37059451 -96.046875 144.1015625 C-95.03137414 143.0675864 -94.01575468 142.03372675 -93 141 C-92.13890625 140.10023438 -91.2778125 139.20046875 -90.390625 138.2734375 C-82.13899491 129.78529572 -72.85332833 122.64829235 -63.55053711 115.37182617 C-56.90113497 110.16139973 -50.35806785 104.82234634 -43.81738281 99.4765625 C-42.19741353 98.16039186 -40.56441304 96.86029738 -38.9296875 95.5625 C-19.82799005 80.32467868 -1.18501495 59.24838416 2 34 C2.80732411 22.46001418 2.38970113 11.32426843 0 0 Z " fill="#EA2C2D" transform="translate(305,6)"/>
<path d="M0 0 C0.495 0.99 0.495 0.99 1 2 C-0.16273438 2.14695312 -1.32546875 2.29390625 -2.5234375 2.4453125 C-11.13328167 3.61818737 -19.42480262 5.14177885 -27.6875 7.875 C-28.40405762 8.10719238 -29.12061523 8.33938477 -29.85888672 8.57861328 C-34.44985781 10.17328135 -38.32205629 12.29327554 -42.34692383 15.01611328 C-44 16 -44 16 -46 16 C-46 17.65 -46 19.3 -46 21 C-22.40971834 33.01769066 7.03819657 34.45111619 33 36 C34.03204056 36.06355179 34.03204056 36.06355179 35.08493042 36.12838745 C51.1569448 37.09239478 67.21526927 37.20094455 83.3125 37.1875 C84.31340857 37.18709969 84.31340857 37.18709969 85.33453751 37.18669128 C136.25868083 37.16120292 190.43165764 36.56442127 239.875 23.0625 C240.68300049 22.84609863 241.49100098 22.62969727 242.32348633 22.40673828 C248.13029243 20.67489467 253.42452052 18.02768851 258 14 C259.326723 10.01983101 259.32891001 8.03058471 258.0625 4.0625 C257.711875 3.381875 257.36125 2.70125 257 2 C260.93485457 3.67301418 264.22594696 5.1086662 267.0625 8.375 C268.3604106 12.00914967 268.42978306 13.35405319 267 17 C247.23280291 41.89955417 195.13987757 44.66238275 166.0390625 48.12109375 C163.35980462 48.41941309 160.6804264 48.71277162 158 49 C157.31595093 49.0751886 156.63190186 49.1503772 155.92712402 49.22784424 C105.63934144 54.70745638 53.29118949 53.9896076 3 49 C2.21161743 48.92267639 1.42323486 48.84535278 0.61096191 48.76568604 C-10.28318058 47.68919525 -21.14548457 46.41907518 -32 45 C-33.93286865 44.75032471 -33.93286865 44.75032471 -35.90478516 44.49560547 C-39.56423452 44.01485336 -43.21999609 43.51337342 -46.875 43 C-48.44229858 42.78742554 -48.44229858 42.78742554 -50.04125977 42.57055664 C-59.52788849 41.16789137 -70.54788173 39.44507526 -78 33 C-79.70795627 30.69797199 -80 29.54005544 -80 26.6875 C-76.53135126 17.3655065 -67.4773974 13.06028274 -59 9 C-42.48344149 1.54481181 -17.70541244 -6.92820487 0 0 Z " fill="#0073BD" transform="translate(151,430)"/>
<path d="M0 0 C-0.63389648 0.38220703 -1.26779297 0.76441406 -1.92089844 1.15820312 C-18.69302419 11.21583518 -18.69302419 11.21583518 -35 22 C-35.55445801 22.38607422 -36.10891602 22.77214844 -36.68017578 23.16992188 C-44.33370798 28.5155107 -51.85675138 33.98040847 -59 40 C-59.91652344 40.76957031 -60.83304687 41.53914063 -61.77734375 42.33203125 C-71.45525284 50.76203437 -80.53174473 60.72221313 -82.41015625 73.87109375 C-83.11669805 87.80264876 -75.07426331 98.98459756 -67.24609375 109.82421875 C-60.12267373 119.75891999 -52.97600083 130.14656196 -55 143 C-58.92171867 161.37870523 -71.94327523 174.61109074 -87.125 184.875 C-87.764375 185.31005859 -88.40375 185.74511719 -89.0625 186.19335938 C-90.8828125 187.3671875 -90.8828125 187.3671875 -94 189 C-94.99 188.67 -95.98 188.34 -97 188 C-96.56429688 187.62230469 -96.12859375 187.24460937 -95.6796875 186.85546875 C-87.71262804 179.4919744 -82.24463393 169.70977509 -81.625 158.75 C-81.91522347 148.71168233 -86.76744264 141.43844931 -93 134 C-106.47545723 116.87887798 -114.07402949 100.07080434 -112 78 C-108.40493486 58.99751286 -94.20760808 43.98670129 -78.85888672 33.26513672 C-58.39967434 19.34083431 -36.44006127 9.76733712 -13 2 C-11.58726807 1.52796143 -11.58726807 1.52796143 -10.14599609 1.04638672 C-9.25605957 0.76166504 -8.36612305 0.47694336 -7.44921875 0.18359375 C-6.26912231 -0.19647827 -6.26912231 -0.19647827 -5.06518555 -0.58422852 C-3 -1 -3 -1 0 0 Z " fill="#EA2C2D" transform="translate(369,109)"/>
<path d="M0 0 C-0.680625 0.556875 -1.36125 1.11375 -2.0625 1.6875 C-4.22676048 3.82848511 -4.22676048 3.82848511 -4.25 6.5625 C-2.62490403 9.73143714 -0.73523775 10.17680158 2.52539062 11.31518555 C7.23184104 12.61763162 12.03019747 13.10202781 16.875 13.625 C18.52459717 13.81219604 18.52459717 13.81219604 20.20751953 14.00317383 C37.05457729 15.85068627 53.77098375 16.55344397 70.6875 15.3125 C71.79037354 15.23870117 72.89324707 15.16490234 74.02954102 15.08886719 C80.51351177 14.58660361 86.78394756 13.72743064 93.140625 12.40234375 C118.40161732 7.24666737 118.40161732 7.24666737 130.16967773 14.83691406 C131.48513133 15.75558292 132.78760077 16.69321852 134.07421875 17.65185547 C137.19612478 19.837348 140.5588551 21.37544164 144 23 C142.24694922 26.50610157 138.13310848 26.89936212 134.58178711 28.12280273 C120.19390662 32.90176406 105.97705382 36.56852006 91 39 C90.25685547 39.12987305 89.51371094 39.25974609 88.74804688 39.39355469 C64.860885 43.46600779 37.71561801 42.5713915 14 38 C13.24895996 37.85546387 12.49791992 37.71092773 11.72412109 37.56201172 C-1.14736585 34.9600523 -14.97465512 31.0917401 -24 21 C-25.47896861 18.04206277 -25.4355582 16.29779776 -25 13 C-20.80670039 5.47526473 -13.18046611 2.67218644 -5.5625 -0.375 C-3 -1 -3 -1 0 0 Z " fill="#0073BD" transform="translate(191,393)"/>
<path d="M0 0 C-2.84343137 1.89562092 -4.74030455 2.6230437 -7.98046875 3.515625 C-8.97240234 3.79414307 -9.96433594 4.07266113 -10.98632812 4.35961914 C-12.04271484 4.65344482 -13.09910156 4.94727051 -14.1875 5.25 C-33.89449505 10.45093312 -33.89449505 10.45093312 -51 21 C-50.36655047 24.0464059 -50.36655047 24.0464059 -48.35546875 24.87890625 C-28.81227093 31.04117583 -8.12891554 30.20521723 12.125 30.1875 C14.02981644 30.18659363 14.02981644 30.18659363 15.97311401 30.18566895 C36.71586619 30.15891358 57.32778025 29.7264156 78 28 C78.76671021 27.93683594 79.53342041 27.87367188 80.32336426 27.80859375 C102.37627823 25.97525079 124.24694709 23.30314419 146.10424805 19.84277344 C146.94007919 19.71298599 147.77591034 19.58319855 148.6370697 19.44947815 C150.1981164 19.20638903 151.75816301 18.95675049 153.31690979 18.69932556 C156.78745334 18.16133596 159.66027182 17.73973545 163 19 C150.57931529 26.30264814 139.31197337 32.58398266 125 35 C122.79935579 35.40818956 120.59884747 35.81711209 118.3984375 36.2265625 C90.35508287 41.28904288 61.94247411 44.12993332 33.4375 44.203125 C32.29155869 44.20736607 32.29155869 44.20736607 31.12246704 44.21169281 C27.06666745 44.22655767 23.01090217 44.23586288 18.95507812 44.24023438 C15.68022301 44.24458367 12.40563662 44.25835522 9.13085938 44.28125 C-65.50264182 44.79207034 -65.50264182 44.79207034 -85 33 C-87.625 30.25 -87.625 30.25 -89 28 C-86.90881368 21.84031753 -83.63616595 19.95656371 -78 17 C-53.18645353 5.4476387 -27.33626351 -0.81826953 0 0 Z " fill="#0073BC" transform="translate(200,281)"/>
<path d="M0 0 C0 0.99 0 1.98 0 3 C-0.66 3 -1.32 3 -2 3 C-3.64784469 5.96612043 -4.82919705 8.58394108 -5 12 C-0.1634968 17.98588397 7.15856325 18.40959817 14.3976593 19.29238892 C29.16019232 20.83256767 43.85136032 21.40157378 58.6875 21.375 C59.73983826 21.37512085 60.79217651 21.3752417 61.87640381 21.37536621 C87.00301101 21.33466309 111.643368 19.01396499 136.30712891 14.13183594 C137.14421387 13.96844727 137.98129883 13.80505859 138.84375 13.63671875 C139.55724609 13.48936279 140.27074219 13.34200684 141.00585938 13.19018555 C145.5309477 12.75861799 148.17185785 14.66869182 151.6875 17.3125 C156.23855116 20.5989946 160.77913828 22.96966489 166 25 C166 25.66 166 26.32 166 27 C112.79677883 41.90431163 32.87972584 56.29601412 -19 29.5625 C-22.46562147 27.48942825 -25.08309812 25.65953996 -27 22 C-27.07559775 17.76652593 -26.56027472 15.71307692 -23.9375 12.375 C-16.58212716 6.42810281 -8.89438302 3.18625002 0 0 Z " fill="#0073BC" transform="translate(178,337)"/>
<path d="M0 0 C0.66 0 1.32 0 2 0 C0.05088915 9.42070246 -4.13205437 15.44201754 -12 21 C-42.15033977 38.84335897 -78.67022684 42.63899869 -112.9317627 45.80859375 C-114.86994305 45.9879638 -116.80755466 46.17344983 -118.74511719 46.359375 C-159.6855053 50.10046023 -203.11213457 50.12198373 -244 46 C-244.97857971 45.90171906 -244.97857971 45.90171906 -245.97692871 45.80145264 C-264.73010298 43.89278529 -283.64768647 41.79498459 -301 34 C-301 33.34 -301 32.68 -301 32 C-300.08637695 32.11069824 -299.17275391 32.22139648 -298.23144531 32.33544922 C-294.68305554 32.76201947 -291.13402263 33.18235433 -287.58447266 33.59912109 C-286.07801286 33.77714866 -284.57180523 33.95732948 -283.06591797 34.14013672 C-256.30142809 37.38376819 -229.69937852 38.37737653 -202.77005768 38.31785583 C-200.21387077 38.31242322 -197.65769311 38.31005057 -195.10150146 38.3079834 C-170.99213958 38.27759745 -146.99689497 37.98049051 -123.01696777 35.2310791 C-120.96287303 34.99574645 -118.90786883 34.77016668 -116.85253906 34.54589844 C-107.8734796 33.55332175 -98.93156058 32.35727671 -90 31 C-88.82614746 30.82243164 -87.65229492 30.64486328 -86.44287109 30.46191406 C-39.89063426 24.20676942 -39.89063426 24.20676942 -1 1 C-0.67 0.67 -0.34 0.34 0 0 Z " fill="#0073BD" transform="translate(439,458)"/>
<path d="M0 0 C7.45148931 5.46898298 13.07074403 12.09043516 15.125 21.25 C16.49403784 33.72632594 14.37029281 43.84477105 6.75 54.0625 C5.56433966 55.47764299 4.35665242 56.87469914 3.125 58.25 C2.30708984 59.17232422 2.30708984 59.17232422 1.47265625 60.11328125 C-3.09111798 64.95625108 -8.30422929 68.64633211 -13.875 72.25 C-14.73480469 72.81589844 -15.59460938 73.38179688 -16.48046875 73.96484375 C-28.33232023 81.3367288 -41.70053912 86.05052998 -54.9375 90.3125 C-55.9279834 90.63661865 -55.9279834 90.63661865 -56.93847656 90.96728516 C-60.17345082 91.96206968 -61.57951396 92.34849535 -64.875 91.25 C-61.62476452 87.57296592 -57.91189418 85.49341937 -53.625 83.25 C-47.4436734 79.90070679 -41.73391966 76.17604383 -36.125 71.9375 C-35.45823242 71.43412109 -34.79146484 70.93074219 -34.10449219 70.41210938 C-31.41778479 68.34498679 -28.93409275 66.30978679 -26.546875 63.89453125 C-24.875 62.25 -24.875 62.25 -22.875 62.25 C-22.61332031 61.66476562 -22.35164063 61.07953125 -22.08203125 60.4765625 C-20.81145592 58.13278276 -19.40381801 56.54389016 -17.5625 54.625 C-11.00801764 47.29217286 -6.28163095 37.5016658 -6.5546875 27.49609375 C-7.48658662 20.96143527 -9.96725592 13.7702906 -14.875 9.25 C-23.7758934 3.14214556 -31.03500185 0.43507815 -41.875 1.25 C-43.36410873 1.55971479 -44.84587914 1.90952193 -46.3125 2.3125 C-49.74565774 3.21596256 -50.68895751 3.25132764 -53.875 2.25 C-40.49992837 -11.50721654 -15.18216915 -9.35466988 0 0 Z " fill="#0073BD" transform="translate(424.875,282.75)"/>
</svg>
