<?xml version="1.0" encoding="UTF-8"?>
<svg version="1.1" xmlns="http://www.w3.org/2000/svg" width="512" height="512">
<path d="M0 0 C0.77397629 -0.00705963 1.54795258 -0.01411926 2.34538269 -0.02139282 C34.97218552 -0.25136472 34.97218552 -0.25136472 50.546875 3.203125 C51.45856445 3.40180176 52.37025391 3.60047852 53.30957031 3.80517578 C105.67979687 15.5712903 151.04585795 47.13427006 180.07421875 92.23828125 C189.73529595 107.58324745 198.04592991 123.68279778 202.359375 141.390625 C204.49645766 148.76214801 209.52303559 151.88777799 215.546875 156.203125 C242.58269947 178.79414575 261.82845727 211.72735738 266.25390625 246.92871094 C267.84321384 264.69187212 268.14968022 283.9010138 263.546875 301.203125 C263.37526855 301.88503906 263.20366211 302.56695312 263.02685547 303.26953125 C253.80189136 339.60880006 230.69233925 371.65538992 198.546875 391.203125 C170.99243048 407.48773728 143.82005262 412.84577084 112.01855469 412.70483398 C109.54208063 412.70862778 107.06560871 412.71413648 104.58914185 412.72120667 C98.6196082 412.73360925 92.65036327 412.72769945 86.68085811 412.71253108 C79.70253666 412.69548819 72.72426597 412.69890379 65.74593011 412.70262516 C53.28240015 412.70847516 40.8189719 412.69444312 28.35546875 412.66967773 C16.30920607 412.64574474 4.26307907 412.63868523 -7.78320312 412.64916992 C-20.96212607 412.66062018 -34.14098661 412.6624603 -47.31990886 412.64807183 C-48.72919003 412.64654627 -50.1384712 412.64502592 -51.54775238 412.64351082 C-52.24081384 412.642753 -52.9338753 412.64199519 -53.64793862 412.64121441 C-58.49285376 412.63650483 -63.33774067 412.63829901 -68.18265533 412.64257622 C-74.71972256 412.64806273 -81.25663154 412.63710281 -87.79367447 412.61562157 C-90.17916107 412.61010108 -92.56466567 412.60954425 -94.95015335 412.61457443 C-111.5816727 412.64522352 -127.83279258 411.90392881 -143.765625 406.640625 C-144.91430054 406.2681665 -144.91430054 406.2681665 -146.08618164 405.88818359 C-160.37952738 401.03775495 -174.38978721 394.31845071 -186.453125 385.203125 C-187.32324219 384.5534375 -188.19335938 383.90375 -189.08984375 383.234375 C-218.9389771 359.87797284 -237.65598212 328.41460213 -244.453125 291.203125 C-244.6274707 290.28982422 -244.80181641 289.37652344 -244.98144531 288.43554688 C-247.74070827 269.5263121 -246.73283297 247.52860097 -241.453125 229.203125 C-241.09903564 227.9668335 -241.09903564 227.9668335 -240.73779297 226.70556641 C-232.85933735 200.22562498 -214.8562986 166.51301813 -189.7265625 152.22119141 C-183.44648339 148.52811491 -182.17112502 143.28486217 -180.078125 136.578125 C-179.31576974 134.31397736 -178.54614883 132.05226403 -177.76953125 129.79296875 C-177.38555176 128.67519043 -177.00157227 127.55741211 -176.60595703 126.40576172 C-167.62718202 101.4621847 -151.76498704 79.15008052 -133.453125 60.203125 C-132.58171875 59.28015625 -131.7103125 58.3571875 -130.8125 57.40625 C-111.26762883 37.17559388 -86.56573496 22.27237866 -60.453125 12.203125 C-59.36306152 11.78135986 -59.36306152 11.78135986 -58.25097656 11.35107422 C-39.8680116 4.38910465 -19.69132994 0.12067949 0 0 Z M-63.203125 117.515625 C-63.82477539 118.03157227 -64.44642578 118.54751953 -65.08691406 119.07910156 C-66.60335182 120.38613875 -68.03646291 121.78855856 -69.453125 123.203125 C-69.453125 124.193125 -69.453125 125.183125 -69.453125 126.203125 C-68.36257812 126.47125 -67.27203125 126.739375 -66.1484375 127.015625 C-36.63125727 134.5643026 -3.72809169 151.98375932 13.546875 178.203125 C12.96665193 182.78753721 9.89853265 185.25113647 6.74194336 188.34863281 C5.83464226 189.25659103 5.83464226 189.25659103 4.90901184 190.18289185 C2.90860976 192.18120447 0.89779249 194.1686823 -1.11328125 196.15625 C-2.50256001 197.53993339 -3.89117775 198.92428076 -5.27915955 200.30926514 C-8.93373411 203.9523864 -12.59722832 207.58640885 -16.26263428 211.21862793 C-20.00146761 214.92677108 -23.73182082 218.6434233 -27.46289062 222.359375 C-34.78468042 229.64899204 -42.11591862 236.92902771 -49.453125 244.203125 C-52.14299643 240.87895468 -54.581997 237.50981701 -56.953125 233.953125 C-65.31405245 222.46459136 -78.12119811 215.06701812 -92.06640625 212.48828125 C-107.39308305 210.6571071 -121.93535398 214.02108539 -134.453125 223.203125 C-145.02395118 232.12460241 -153.36966182 244.26750806 -155.453125 258.203125 C-156.6227213 274.58357539 -154.38881982 287.71594778 -144.453125 301.203125 C-143.92976563 301.92242187 -143.40640625 302.64171875 -142.8671875 303.3828125 C-134.70242312 313.61863906 -122.30596645 320.17082911 -109.453125 322.203125 C-106.24492018 322.35493607 -103.03935187 322.35094634 -99.82800293 322.35029602 C-98.85285059 322.35397271 -97.87769826 322.3576494 -96.87299585 322.3614375 C-93.60217419 322.37245909 -90.33138432 322.37631563 -87.06054688 322.38012695 C-84.71639912 322.38639283 -82.37225236 322.39303974 -80.02810669 322.40003967 C-72.32603648 322.42107032 -64.6239661 322.43144215 -56.921875 322.44140625 C-54.26833587 322.44545438 -51.61479685 322.44957132 -48.96125793 322.45375633 C-37.92073651 322.47076627 -26.88021605 322.48525828 -15.83968353 322.49250507 C-12.9767812 322.49441479 -10.11387887 322.49633515 -7.25097656 322.49829102 C-6.53946656 322.49877476 -5.82795656 322.4992585 -5.09488565 322.4997569 C6.41941414 322.50804916 17.93360976 322.53337349 29.44786412 322.56587169 C41.28496715 322.59900708 53.12201737 322.61695972 64.959167 322.62014931 C71.59889961 322.62230857 78.23849776 322.63141888 84.87818909 322.65661049 C91.12940463 322.67994483 97.38034775 322.68410268 103.63159561 322.67384911 C105.91920505 322.67335492 108.20682813 322.67964049 110.49439621 322.69340515 C122.17320133 322.75971564 132.62555288 322.81547165 143.546875 318.203125 C144.29841103 317.90281529 145.04994705 317.60250559 145.8242569 317.29309559 C158.15248434 312.10542492 167.57061534 301.04782447 172.95703125 289.06640625 C173.92766791 286.4606469 174.79621324 283.87959162 175.546875 281.203125 C175.72049561 280.58445557 175.89411621 279.96578613 176.07299805 279.32836914 C178.52856729 268.31562817 177.30212762 255.3236791 172.546875 245.203125 C172.19625 244.42066406 171.845625 243.63820313 171.484375 242.83203125 C164.49614051 228.83129758 152.1097411 219.1805532 137.546875 214.203125 C132.07773888 212.57510309 127.27355738 212.12713766 121.546875 212.203125 C121.59908203 210.47642578 121.59908203 210.47642578 121.65234375 208.71484375 C122.32294263 176.7936599 113.14780578 148.00850291 91.1484375 124.52734375 C84.80250218 117.9265307 78.38900771 112.00315854 70.546875 107.203125 C69.68449219 106.63464844 68.82210937 106.06617188 67.93359375 105.48046875 C26.03466413 79.11253932 -26.35801317 86.68452638 -63.203125 117.515625 Z " fill="#4285F3" transform="translate(245.453125,49.796875)"/>
<path d="M0 0 C0.77397629 -0.00705963 1.54795258 -0.01411926 2.34538269 -0.02139282 C34.97218552 -0.25136472 34.97218552 -0.25136472 50.546875 3.203125 C51.45856445 3.40180176 52.37025391 3.60047852 53.30957031 3.80517578 C87.02351565 11.3797495 117.09660395 27.10707547 143.546875 49.203125 C141.90943566 53.37928299 138.84905708 56.1679403 135.72021484 59.25683594 C134.82732506 60.1501638 134.82732506 60.1501638 133.91639709 61.0615387 C131.95157323 63.02497143 129.97976461 64.98122873 128.0078125 66.9375 C126.64260021 68.2989814 125.27782939 69.66090561 123.91348267 71.02325439 C120.32414341 74.60496324 116.7288382 78.1806249 113.13226318 81.75506592 C109.46216181 85.40469621 105.79772671 89.06000592 102.1328125 92.71484375 C94.94303848 99.88317829 87.74694984 107.045138 80.546875 114.203125 C77.9779683 112.9362465 75.56524443 111.62340513 73.18359375 110.03125 C46.75025514 92.69669737 16.63044543 86.75211348 -14.40625 92.953125 C-32.58737126 97.28564751 -48.34095732 106.14460927 -62.640625 118.015625 C-63.20628174 118.48395752 -63.77193848 118.95229004 -64.35473633 119.43481445 C-66.94669537 121.6516268 -68.354254 122.90651201 -69.453125 126.203125 C-68.4425 126.265 -67.431875 126.326875 -66.390625 126.390625 C-34.83398994 130.48745131 -7.70661989 153.47896938 13.01953125 175.875 C14.546875 178.203125 14.546875 178.203125 14.29933262 180.16908646 C13.02167541 183.62284112 10.23062111 185.90749134 7.65014648 188.44042969 C7.03552551 189.05548874 6.42090454 189.67054779 5.78765869 190.304245 C3.75479223 192.3350218 1.71150679 194.35496686 -0.33203125 196.375 C-1.74373024 197.78110369 -3.15476824 199.18787128 -4.56517029 200.59527588 C-8.27892821 204.29757995 -12.00160718 207.99078669 -15.72619629 211.68218994 C-19.52535231 215.45065696 -23.31602903 219.22763176 -27.10742188 223.00390625 C-34.5477011 230.41201176 -41.99742966 237.81053712 -49.453125 245.203125 C-51.96779216 242.76228938 -53.87073998 240.24206016 -55.828125 237.328125 C-58.45134198 233.55178556 -60.9860451 230.25745729 -64.453125 227.203125 C-65.38705078 226.37361328 -65.38705078 226.37361328 -66.33984375 225.52734375 C-78.03011829 215.72598251 -92.39894492 211.88609263 -107.453125 213.203125 C-122.92921087 215.8981264 -135.96470137 222.71598139 -145.19921875 235.6484375 C-154.04375592 249.72029465 -156.63284766 264.5975 -153.8046875 280.953125 C-151.66590461 288.5576864 -148.07988105 294.84261779 -143.453125 301.203125 C-142.81310547 302.15445313 -142.81310547 302.15445313 -142.16015625 303.125 C-137.43883244 309.45883748 -130.10532964 313.18446439 -123.453125 317.203125 C-127.30410491 321.80722133 -131.29239677 326.18479912 -135.55029297 330.41381836 C-136.12662979 330.99030121 -136.70296661 331.56678406 -137.29676819 332.16073608 C-139.17725235 334.04053095 -141.06123909 335.91677193 -142.9453125 337.79296875 C-144.25975074 339.10553931 -145.57396644 340.41833276 -146.88796997 341.7313385 C-150.32819012 345.16776102 -153.77140393 348.60116837 -157.215271 352.03393555 C-160.73648911 355.54488001 -164.25483849 359.0586967 -167.7734375 362.57226562 C-174.66387768 369.45201712 -181.55748705 376.32858355 -188.453125 383.203125 C-219.01246014 360.70834391 -237.67658888 328.30178884 -244.453125 291.203125 C-244.6274707 290.28982422 -244.80181641 289.37652344 -244.98144531 288.43554688 C-247.74070827 269.5263121 -246.73283297 247.52860097 -241.453125 229.203125 C-241.09903564 227.9668335 -241.09903564 227.9668335 -240.73779297 226.70556641 C-232.85933735 200.22562498 -214.8562986 166.51301813 -189.7265625 152.22119141 C-183.44648339 148.52811491 -182.17112502 143.28486217 -180.078125 136.578125 C-179.31576974 134.31397736 -178.54614883 132.05226403 -177.76953125 129.79296875 C-177.38555176 128.67519043 -177.00157227 127.55741211 -176.60595703 126.40576172 C-167.62718202 101.4621847 -151.76498704 79.15008052 -133.453125 60.203125 C-132.58171875 59.28015625 -131.7103125 58.3571875 -130.8125 57.40625 C-111.26762883 37.17559388 -86.56573496 22.27237866 -60.453125 12.203125 C-59.36306152 11.78135986 -59.36306152 11.78135986 -58.25097656 11.35107422 C-39.8680116 4.38910465 -19.69132994 0.12067949 0 0 Z " fill="#FABB04" transform="translate(245.453125,49.796875)"/>
<path d="M0 0 C0.77397629 -0.00705963 1.54795258 -0.01411926 2.34538269 -0.02139282 C34.97218552 -0.25136472 34.97218552 -0.25136472 50.546875 3.203125 C51.45856445 3.40180176 52.37025391 3.60047852 53.30957031 3.80517578 C87.02351565 11.3797495 117.09660395 27.10707547 143.546875 49.203125 C141.90943566 53.37928299 138.84905708 56.1679403 135.72021484 59.25683594 C134.82732506 60.1501638 134.82732506 60.1501638 133.91639709 61.0615387 C131.95157323 63.02497143 129.97976461 64.98122873 128.0078125 66.9375 C126.64260021 68.2989814 125.27782939 69.66090561 123.91348267 71.02325439 C120.32414341 74.60496324 116.7288382 78.1806249 113.13226318 81.75506592 C109.46216181 85.40469621 105.79772671 89.06000592 102.1328125 92.71484375 C94.94303848 99.88317829 87.74694984 107.045138 80.546875 114.203125 C77.9779683 112.9362465 75.56524443 111.62340513 73.18359375 110.03125 C46.75025514 92.69669737 16.63044543 86.75211348 -14.40625 92.953125 C-35.2029219 97.90892767 -52.84518088 108.82929739 -68.453125 123.203125 C-68.783125 123.863125 -69.113125 124.523125 -69.453125 125.203125 C-70.278125 125.13311279 -71.103125 125.06310059 -71.953125 124.9909668 C-80.44678289 124.3208826 -88.89205451 124.01680117 -97.41210938 124.01782227 C-99.45203259 124.01562618 -101.49142078 123.99733955 -103.53125 123.97851562 C-115.49833701 123.9263299 -127.12834311 125.25406017 -138.703125 128.328125 C-139.49396484 128.53767822 -140.28480469 128.74723145 -141.09960938 128.96313477 C-154.16132809 132.61829257 -168.82768445 138.55499664 -179.6171875 146.87109375 C-181.453125 148.203125 -181.453125 148.203125 -183.453125 148.203125 C-175.36014343 114.69534164 -157.27548363 84.8516926 -133.453125 60.203125 C-132.58171875 59.28015625 -131.7103125 58.3571875 -130.8125 57.40625 C-111.26762883 37.17559388 -86.56573496 22.27237866 -60.453125 12.203125 C-59.72641602 11.92194824 -58.99970703 11.64077148 -58.25097656 11.35107422 C-39.8680116 4.38910465 -19.69132994 0.12067949 0 0 Z " fill="#E94334" transform="translate(245.453125,49.796875)"/>
<path d="M0 0 C4.62 1.32 9.24 2.64 14 4 C18.29384656 4.35716423 22.32388617 4.56599209 26.60498047 4.54589844 C28.36368973 4.56140495 28.36368973 4.56140495 30.15792847 4.57722473 C33.97782618 4.60638294 37.79718783 4.60814621 41.6171875 4.609375 C44.28763466 4.6243749 46.95802836 4.64091424 49.62844849 4.65948486 C55.90368962 4.69978891 62.17882753 4.72032471 68.45417798 4.73345876 C76.31199761 4.75098675 84.16963794 4.79543623 92.02734375 4.83984375 C106.01822395 4.91879568 120.00885574 4.95756401 134 5 C134 34.7 134 64.4 134 95 C102.98472274 95.12049101 102.98472274 95.12049101 87.55401993 95.1507616 C79.24201501 95.16732116 70.9301014 95.18827216 62.61816406 95.22631836 C56.03236805 95.25644884 49.44664125 95.27562838 42.86077821 95.28226548 C39.38143923 95.28613823 35.90229807 95.29508061 32.42302322 95.31719017 C14.42276003 95.42713061 -3.05474073 95.13848447 -20.3125 89.4375 C-21.07828369 89.18919434 -21.84406738 88.94088867 -22.63305664 88.68505859 C-56.98045908 77.02931138 -56.98045908 77.02931138 -65 65 C-43.55 43.55 -22.1 22.1 0 0 Z " fill="#34A753" transform="translate(122,367)"/>
</svg>
